<svg xmlns="http://www.w3.org/2000/svg" width="20.048" height="21.943" viewBox="0 0 20.048 21.943">
  <g id="Icon_feather-share-2" data-name="Icon feather-share-2" transform="translate(1.5 1.5)">
    <path id="Tracé_28" data-name="Tracé 28" d="M28.183,5.841A2.841,2.841,0,1,1,25.341,3,2.841,2.841,0,0,1,28.183,5.841Z" transform="translate(-11.134 -3)" fill="none" stroke="#fff" stroke-linecap="round" stroke-linejoin="round" stroke-width="3"/>
    <path id="Tracé_29" data-name="Tracé 29" d="M10.183,16.341A2.841,2.841,0,1,1,7.341,13.5,2.841,2.841,0,0,1,10.183,16.341Z" transform="translate(-4.5 -6.87)" fill="none" stroke="#fff" stroke-linecap="round" stroke-linejoin="round" stroke-width="3"/>
    <path id="Tracé_30" data-name="Tracé 30" d="M28.183,26.841A2.841,2.841,0,1,1,25.341,24,2.841,2.841,0,0,1,28.183,26.841Z" transform="translate(-11.134 -10.74)" fill="none" stroke="#fff" stroke-linecap="round" stroke-linejoin="round" stroke-width="3"/>
    <path id="Tracé_31" data-name="Tracé 31" d="M12.885,20.265l6.469,3.77" transform="translate(-7.591 -9.364)" fill="none" stroke="#fff" stroke-linecap="round" stroke-linejoin="round" stroke-width="3"/>
    <path id="Tracé_32" data-name="Tracé 32" d="M19.344,9.765l-6.459,3.77" transform="translate(-7.591 -5.493)" fill="none" stroke="#fff" stroke-linecap="round" stroke-linejoin="round" stroke-width="3"/>
  </g>
</svg>
