<svg xmlns="http://www.w3.org/2000/svg" width="27.07" height="27.07" viewBox="0 0 27.07 27.07">
  <path id="Icon_awesome-headset" data-name="Icon awesome-headset" d="M10.151,11A1.692,1.692,0,0,0,8.459,9.305H7.613A3.383,3.383,0,0,0,4.23,12.689v2.538a3.383,3.383,0,0,0,3.384,3.384h.846a1.692,1.692,0,0,0,1.692-1.692Zm9.305,7.613a3.383,3.383,0,0,0,3.384-3.384V12.689a3.383,3.383,0,0,0-3.384-3.384h-.846A1.692,1.692,0,0,0,16.919,11v5.922a1.692,1.692,0,0,0,1.692,1.692ZM13.535,0C5.984,0,.242,6.283,0,13.535v.846a.846.846,0,0,0,.846.846h.846a.846.846,0,0,0,.846-.846v-.846a11,11,0,1,1,21.994,0h-.006c0,.128.006,8.762.006,8.762A2.235,2.235,0,0,1,22.3,24.532H16.919a2.538,2.538,0,0,0-2.538-2.538H12.689a2.538,2.538,0,0,0,0,5.076H22.3A4.773,4.773,0,0,0,27.07,22.3V13.535C26.828,6.283,21.086,0,13.535,0Z" fill="#06f"/>
</svg>
