<svg xmlns="http://www.w3.org/2000/svg" width="34.215" height="27.372" viewBox="0 0 34.215 27.372">
  <path id="Icon_awesome-truck-loading" data-name="Icon awesome-truck-loading" d="M2.684,20.08a.857.857,0,0,0,1.048.6l11.569-3.1a.857.857,0,0,0,.6-1.048L13.248,6.619a.857.857,0,0,0-1.048-.6L8.073,7.126,9.4,12.082l-3.3.882L4.769,8.009.636,9.115a.857.857,0,0,0-.6,1.048ZM20.529,0a1.709,1.709,0,0,0-1.711,1.711v17.3L.315,24.058a.425.425,0,0,0-.3.524L.69,27.057a.425.425,0,0,0,.524.3l21.048-5.742a5.979,5.979,0,0,0,11.954-.23V0Zm7.7,23.951a2.566,2.566,0,1,1,2.566-2.566A2.567,2.567,0,0,1,28.228,23.951Z" transform="translate(0)" fill="#06f"/>
</svg>
