<svg xmlns="http://www.w3.org/2000/svg" width="17.295" height="15.25" viewBox="0 0 17.295 15.25">
  <path id="Icon_awesome-comment" data-name="Icon awesome-comment" d="M8.143,3.125C3.645,3.125,0,6.086,0,9.741A5.872,5.872,0,0,0,1.813,13.9,8.092,8.092,0,0,1,.07,16.946a.253.253,0,0,0-.048.277.249.249,0,0,0,.232.153A7.274,7.274,0,0,0,4.727,15.74a9.7,9.7,0,0,0,3.416.617c4.5,0,8.143-2.961,8.143-6.616S12.641,3.125,8.143,3.125Z" transform="translate(0.51 -2.625)" fill="none" stroke="#000" stroke-width="1" opacity="0.64"/>
</svg>
