<svg xmlns="http://www.w3.org/2000/svg" width="156.109" height="145.287" viewBox="0 0 156.109 145.287">
  <g id="Icon_feather-shopping-cart" data-name="Icon feather-shopping-cart" transform="translate(5.464 62.747) rotate(-30)" opacity="0.13">
    <path id="Tracé_6" data-name="Tracé 6" d="M22.142,35.071A5.071,5.071,0,1,1,17.071,30,5.071,5.071,0,0,1,22.142,35.071Z" transform="translate(24.998 67.852)" fill="none" stroke="#ffe000" stroke-linecap="round" stroke-linejoin="round" stroke-width="11"/>
    <path id="Tracé_7" data-name="Tracé 7" d="M38.642,35.071A5.071,5.071,0,1,1,33.571,30,5.071,5.071,0,0,1,38.642,35.071Z" transform="translate(64.281 67.852)" fill="none" stroke="#ffe000" stroke-linecap="round" stroke-linejoin="round" stroke-width="11"/>
    <path id="Tracé_8" data-name="Tracé 8" d="M1.5,1.5H21.785L35.375,69.4a10.142,10.142,0,0,0,10.142,8.165H94.81A10.142,10.142,0,0,0,104.952,69.4l8.114-42.547H26.856" fill="none" stroke="#ffe000" stroke-linecap="round" stroke-linejoin="round" stroke-width="11"/>
  </g>
</svg>
