<svg xmlns="http://www.w3.org/2000/svg" width="36" height="36" viewBox="0 0 36 36">
  <path id="Icon_awesome-parachute-box" data-name="Icon awesome-parachute-box" d="M35.993,12.3C35.353,6.989,30.48,3,24.863,1.146A18.1,18.1,0,0,1,29.25,13.5h1.976l-8.2,9.105A2.193,2.193,0,0,0,22.5,22.5H19.125v-9H27C27,5.4,22.155,0,18,0S9,5.4,9,13.5h7.875v9H13.5a2.193,2.193,0,0,0-.527.105L4.774,13.5H6.75A18.1,18.1,0,0,1,11.137,1.146C5.52,3,.647,7,.007,12.3a1.111,1.111,0,0,0,1.125,1.2h.612l9.612,10.68a2.154,2.154,0,0,0-.113.57v9A2.248,2.248,0,0,0,13.493,36h9a2.248,2.248,0,0,0,2.25-2.25v-9a2.212,2.212,0,0,0-.112-.57L34.249,13.5h.612a1.109,1.109,0,0,0,1.132-1.2Z" transform="translate(0)" fill="#06f"/>
</svg>
