<svg xmlns="http://www.w3.org/2000/svg" width="31.5" height="24.736" viewBox="0 0 31.5 24.736">
  <g id="Icon_ionic-ios-cash" data-name="Icon ionic-ios-cash" transform="translate(-2.25 -5.632)">
    <path id="Tracé_19" data-name="Tracé 19" d="M32.766,25.024H3.234a.984.984,0,0,0,0,1.969H32.766a.984.984,0,0,0,0-1.969Z" fill="#06f"/>
    <path id="Tracé_20" data-name="Tracé 20" d="M32.766,28.4H3.234a.984.984,0,0,0,0,1.969H32.766a.984.984,0,0,0,0-1.969Z" fill="#06f"/>
    <path id="Tracé_21" data-name="Tracé 21" d="M31.282,5.632H4.718A2.476,2.476,0,0,0,2.25,8.1V20.6A2.476,2.476,0,0,0,4.718,23.07H31.282A2.476,2.476,0,0,0,33.75,20.6V8.1A2.476,2.476,0,0,0,31.282,5.632ZM8.016,20.82H5.484a.984.984,0,0,1,0-1.969H8.016a.984.984,0,0,1,0,1.969Zm0-10.969H5.484a.984.984,0,0,1,0-1.969H8.016a.984.984,0,0,1,0,1.969ZM18,19.976a5.625,5.625,0,1,1,5.625-5.625A5.632,5.632,0,0,1,18,19.976Zm12.516.844H27.984a.984.984,0,0,1,0-1.969h2.531a.984.984,0,0,1,0,1.969Zm0-10.969H27.984a.984.984,0,0,1,0-1.969h2.531a.984.984,0,0,1,0,1.969Z" fill="#06f"/>
    <path id="Tracé_22" data-name="Tracé 22" d="M21.727,14.484A3.727,3.727,0,1,1,18,10.758a3.727,3.727,0,0,1,3.727,3.727Z" fill="#06f"/>
  </g>
</svg>
