<svg xmlns="http://www.w3.org/2000/svg" width="35.357" height="24.75" viewBox="0 0 35.357 24.75">
  <path id="Icon_awesome-truck-moving" data-name="Icon awesome-truck-moving" d="M34.324,14.467l-3.232-3.232a3.537,3.537,0,0,0-2.5-1.033H26.518V4.893A1.766,1.766,0,0,0,24.75,3.125H1.768A1.766,1.766,0,0,0,0,4.893V23.455a4.409,4.409,0,0,0,7.955,2.63,4.409,4.409,0,0,0,7.955-2.63,4.656,4.656,0,0,0-.088-.884h9.016a4.246,4.246,0,0,0-.088.884,4.42,4.42,0,1,0,8.839,0,4.656,4.656,0,0,0-.088-.884h.972a.887.887,0,0,0,.884-.884V16.964A3.524,3.524,0,0,0,34.324,14.467ZM4.42,25.223a1.768,1.768,0,1,1,1.768-1.768A1.773,1.773,0,0,1,4.42,25.223Zm7.071,0a1.768,1.768,0,1,1,1.768-1.768A1.773,1.773,0,0,1,11.491,25.223ZM26.518,12.848H28.59a.878.878,0,0,1,.624.26L31.606,15.5H26.518ZM29.17,25.223a1.768,1.768,0,1,1,1.768-1.768A1.773,1.773,0,0,1,29.17,25.223Z" transform="translate(0 -3.125)" fill="#06f"/>
</svg>
