<svg xmlns="http://www.w3.org/2000/svg" width="17.517" height="16.767" viewBox="0 0 17.517 16.767">
  <g id="Icon_feather-shopping-cart" data-name="Icon feather-shopping-cart" transform="translate(-1 -1)">
    <path id="Tracé_6" data-name="Tracé 6" d="M13.5,30.751A.751.751,0,1,1,12.751,30,.751.751,0,0,1,13.5,30.751Z" transform="translate(-5.244 -14.235)" fill="none" stroke="#000" stroke-linecap="round" stroke-linejoin="round" stroke-width="1"/>
    <path id="Tracé_7" data-name="Tracé 7" d="M30,30.751A.751.751,0,1,1,29.251,30,.751.751,0,0,1,30,30.751Z" transform="translate(-13.486 -14.235)" fill="none" stroke="#000" stroke-linecap="round" stroke-linejoin="round" stroke-width="1"/>
    <path id="Tracé_8" data-name="Tracé 8" d="M1.5,1.5h3L6.515,11.553a1.5,1.5,0,0,0,1.5,1.209h7.3a1.5,1.5,0,0,0,1.5-1.209l1.2-6.3H5.254" fill="none" stroke="#000" stroke-linecap="round" stroke-linejoin="round" stroke-width="1"/>
  </g>
</svg>
