<svg xmlns="http://www.w3.org/2000/svg" width="14.071" height="13.066" viewBox="0 0 14.071 13.066">
  <path id="Icon_ionic-ios-star-outline" data-name="Icon ionic-ios-star-outline" d="M15.787,7.9h-4.62l-1.4-4.19a.509.509,0,0,0-.955,0L7.4,7.9H2.753a.5.5,0,0,0-.5.5.369.369,0,0,0,.009.085.483.483,0,0,0,.21.355l3.8,2.676L4.81,15.753a.5.5,0,0,0,.173.565.486.486,0,0,0,.283.122.616.616,0,0,0,.314-.113l3.706-2.641,3.706,2.641a.589.589,0,0,0,.314.113.451.451,0,0,0,.28-.122.5.5,0,0,0,.173-.565L12.3,11.516l3.766-2.7.091-.079a.48.48,0,0,0-.371-.839Zm-4,2.905a.882.882,0,0,0-.32,1l.945,2.754a.126.126,0,0,1-.192.144L9.794,12.967a.878.878,0,0,0-.512-.163.861.861,0,0,0-.509.163L6.342,14.7a.126.126,0,0,1-.192-.144L7.1,11.8a.885.885,0,0,0-.323-1.005L4.229,9A.126.126,0,0,1,4.3,8.771H7.4a.878.878,0,0,0,.832-.6l.93-2.77a.126.126,0,0,1,.239,0l.93,2.77a.878.878,0,0,0,.832.6h3.056A.124.124,0,0,1,14.292,9Z" transform="translate(-2.25 -3.375)" fill="#ff6f00"/>
</svg>
