<svg xmlns="http://www.w3.org/2000/svg" width="987.167" height="864.682" viewBox="0 0 987.167 864.682">
  <g id="_3544856" data-name="3544856" transform="translate(-15.9 -44.441)">
    <g id="Background_Complete" transform="translate(22.012 44.441)">
      <g id="XMLID_1_" transform="translate(663.365)">
        <g id="XMLID_2_">
          <g id="XMLID_3_">
            <path id="Tracé_86" data-name="Tracé 86" d="M579.206,250.483,390.361,292.214a14.274,14.274,0,0,1-17.072-10.96L333.876,103.579a14.274,14.274,0,0,1,10.96-17.072L533.681,44.776a14.274,14.274,0,0,1,17.072,10.96l39.413,177.675A14.6,14.6,0,0,1,579.206,250.483Z" transform="translate(-333.541 -44.441)" fill="#ebebeb"/>
          </g>
        </g>
        <g id="XMLID_4_" transform="translate(53.236 57.663)">
          <g id="XMLID_5_">
            <g id="XMLID_6_">
              <g id="XMLID_7_" transform="translate(0 36.462)">
                <g id="XMLID_8_">
                  <g id="XMLID_9_">
                    <path id="Tracé_87" data-name="Tracé 87" d="M477.039,142a6.588,6.588,0,0,1-1.475.422c-1.054.211-2.529.632-4.215,1.054-3.794.843-9.063,2.108-15.6,3.583-13.278,2.951-31.615,7.166-52.059,11.8h-.422l-.211-.422c-1.054-2.74-2.108-5.48-3.161-8.431-9.063-24.449-17.283-46.368-22.552-60.7l.422.211c-5.9,1.265-10.538,2.318-13.91,2.951-1.475.211-2.74.632-3.794.843a5.9,5.9,0,0,1-1.265.211,6.8,6.8,0,0,1,1.265-.422,30.724,30.724,0,0,1,3.583-.843Q368.706,91,377.558,89.1h.211v.211c5.48,14.332,13.7,36.041,22.973,60.49,1.054,2.951,2.108,5.691,3.161,8.431l-.632-.211c20.655-4.637,38.992-8.641,52.27-11.592,6.534-1.475,11.8-2.529,15.6-3.372,1.686-.422,3.161-.632,4.215-.843A12.546,12.546,0,0,1,477.039,142Z" transform="translate(-358.8 -89.1)" fill="#fafafa"/>
                  </g>
                </g>
              </g>
              <g id="XMLID_10_" transform="translate(23.395 26.767)">
                <g id="XMLID_11_">
                  <g id="XMLID_12_">
                    <path id="Tracé_88" data-name="Tracé 88" d="M385.918,148.783a.653.653,0,0,0,.422-.211,9.128,9.128,0,0,1,1.054-.211c1.054-.211,2.318-.632,4.215-1.054,3.794-.843,9.063-2.108,15.6-3.583,13.489-3.161,32.247-7.377,54.167-12.224l-.422.422c-.421-9.484-.843-19.6-1.475-30.35q-.316-8.22-.632-15.807l.632.422c-25.292,5.691-47.633,10.538-63.862,14.121-8.009,1.686-14.332,3.161-18.969,4-2.108.422-3.794.843-5.058,1.054a7.454,7.454,0,0,0-1.265.211H369.9a.653.653,0,0,0,.422-.211,3,3,0,0,0,1.265-.422,43.584,43.584,0,0,0,5.058-1.265c4.426-1.054,10.96-2.529,18.758-4.426,16.018-3.583,38.359-8.641,63.651-14.543l.632-.211v.632c.211,5.058.422,10.538.632,15.807.422,10.538.843,20.866,1.265,30.35v.422h-.422c-21.919,4.848-40.678,9.063-54.167,12.014-6.745,1.475-12.014,2.529-15.807,3.372-1.686.422-3.161.632-4.215.843a9.127,9.127,0,0,0-1.054.211C386.129,148.783,385.918,148.783,385.918,148.783Z" transform="translate(-369.9 -84.5)" fill="#fafafa"/>
                  </g>
                </g>
              </g>
              <g id="XMLID_13_" transform="translate(52.699 115.313)">
                <g id="XMLID_14_">
                  <g id="XMLID_15_">
                    <path id="Tracé_89" data-name="Tracé 89" d="M398.971,132.81a9.615,9.615,0,0,0-.843-1.686,7.721,7.721,0,0,0-3.583-3.161,7.137,7.137,0,0,0-6.745.632,6.692,6.692,0,0,0-2.951,7.377,7.46,7.46,0,0,0,5.9,5.48,7,7,0,0,0,6.323-2.318,9.636,9.636,0,0,0,1.9-4.426c0-1.265-.211-1.9,0-1.9a3.628,3.628,0,0,1,.422,1.9,7.124,7.124,0,0,1-1.686,4.848,7.666,7.666,0,0,1-6.955,2.74,7.807,7.807,0,0,1-6.745-6.112,7.987,7.987,0,0,1,3.583-8.431,7.6,7.6,0,0,1,7.588-.422,7.193,7.193,0,0,1,3.583,3.583A13.018,13.018,0,0,1,398.971,132.81Z" transform="translate(-383.804 -126.512)" fill="#fafafa"/>
                  </g>
                </g>
              </g>
              <g id="XMLID_16_" transform="translate(99.7 104.775)">
                <g id="XMLID_17_">
                  <g id="XMLID_18_">
                    <path id="Tracé_90" data-name="Tracé 90" d="M421.271,127.81a9.615,9.615,0,0,0-.843-1.686,7.72,7.72,0,0,0-3.583-3.161,7.137,7.137,0,0,0-6.745.632,6.692,6.692,0,0,0-2.951,7.377,7.46,7.46,0,0,0,5.9,5.48,7,7,0,0,0,6.323-2.318,9.637,9.637,0,0,0,1.9-4.426,4.333,4.333,0,0,0,0-1.9,3.628,3.628,0,0,1,.422,1.9,7.123,7.123,0,0,1-1.686,4.848,7.666,7.666,0,0,1-6.955,2.74,7.807,7.807,0,0,1-6.745-6.112,7.987,7.987,0,0,1,3.583-8.431,7.6,7.6,0,0,1,7.588-.422,7.193,7.193,0,0,1,3.583,3.583C421.482,126.967,421.482,127.81,421.271,127.81Z" transform="translate(-406.104 -121.512)" fill="#fafafa"/>
                  </g>
                </g>
              </g>
              <g id="XMLID_19_" transform="translate(85.571)">
                <g id="XMLID_20_">
                  <circle id="Ellipse_16" data-name="Ellipse 16" cx="21.498" cy="21.498" r="21.498" fill="#fafafa"/>
                </g>
              </g>
            </g>
            <g id="XMLID_21_" transform="translate(97.576 11.151)">
              <g id="XMLID_22_">
                <g id="XMLID_23_">
                  <path id="Tracé_91" data-name="Tracé 91" d="M424.284,77.11c.211,0-.632,1.686-1.9,4s-3.161,5.691-5.269,9.274c-.843,1.265-1.475,2.529-2.318,3.794l-.211.422-.422-.211c-5.48-2.951-9.274-5.269-9.063-5.48s4.215,1.686,9.7,4.637l-.632.211a36.675,36.675,0,0,1,2.318-3.794c2.108-3.583,4.215-6.744,5.691-9.063C423.23,78.375,424.073,76.9,424.284,77.11Z" transform="translate(-405.096 -77.091)" fill="#e0e0e0"/>
                </g>
              </g>
            </g>
          </g>
        </g>
      </g>
      <g id="XMLID_24_" transform="translate(0 7.979)">
        <g id="XMLID_25_" transform="translate(91.051 295.616)">
          <g id="XMLID_26_">
            <path id="Tracé_92" data-name="Tracé 92" d="M83.709,200.951C79.915,187.252,62,188.516,62,188.516L62.422,198c10.327-1.686,16.861,10.327,16.861,10.327Z" transform="translate(-62 -188.485)" fill="#e0e0e0"/>
          </g>
        </g>
        <g id="XMLID_27_" transform="translate(369.682 124.084)">
          <g id="XMLID_28_">
            <path id="Tracé_93" data-name="Tracé 93" d="M200.1,131.97c20.655,6.323,33.722-17.7,33.722-17.7L221.178,107.1c-6.112,14.754-26.978,13.067-26.978,13.067Z" transform="translate(-194.2 -107.1)" fill="#e0e0e0"/>
          </g>
        </g>
        <g id="XMLID_29_" transform="translate(528.599 268.093)">
          <g id="XMLID_30_" transform="translate(0)">
            <path id="Tracé_94" data-name="Tracé 94" d="M288.78,184.855c-4-11.381-19.18-9.274-19.18-9.274l.843,8.009c8.641-2.108,14.754,7.8,14.754,7.8Z" transform="translate(-269.6 -175.427)" fill="#e0e0e0"/>
          </g>
        </g>
        <g id="XMLID_31_" transform="translate(290.645)">
          <g id="XMLID_32_">
            <path id="Tracé_95" data-name="Tracé 95" d="M175.88,57.655c-4-11.381-19.18-9.274-19.18-9.274l.843,8.009c8.641-2.108,14.754,7.8,14.754,7.8Z" transform="translate(-156.7 -48.227)" fill="#e0e0e0"/>
          </g>
        </g>
        <g id="XMLID_33_" transform="translate(110.652 146.482)">
          <g id="XMLID_34_">
            <path id="Tracé_96" data-name="Tracé 96" d="M90.48,127.155c-4-11.381-19.18-9.274-19.18-9.274l.843,8.009c8.641-2.108,14.754,7.8,14.754,7.8Z" transform="translate(-71.3 -117.727)" fill="#ebebeb"/>
          </g>
        </g>
        <g id="XMLID_35_" transform="translate(79.458 48.841)">
          <g id="XMLID_36_">
            <path id="Tracé_97" data-name="Tracé 97" d="M69.146,71.4C57.132,73.3,56.5,88.472,56.5,88.472l8.22.422C64.3,80.041,75.047,75.826,75.047,75.826Z" transform="translate(-56.5 -71.4)" fill="#ebebeb"/>
          </g>
        </g>
        <g id="XMLID_37_" transform="translate(0 380.164)">
          <g id="XMLID_38_">
            <path id="Tracé_98" data-name="Tracé 98" d="M24.7,253.47c20.866,6.323,33.722-17.7,33.722-17.7L45.778,228.6C39.666,243.354,18.8,241.667,18.8,241.667Z" transform="translate(-18.8 -228.6)" fill="#ebebeb"/>
          </g>
        </g>
        <g id="XMLID_39_" transform="translate(584.873 136.73)">
          <g id="XMLID_40_">
            <path id="Tracé_99" data-name="Tracé 99" d="M308.735,126.8c1.475-9.7-10.117-13.7-10.117-13.7l-2.318,6.112c6.955,1.686,7.588,10.96,7.588,10.96Z" transform="translate(-296.3 -113.1)" fill="#e0e0e0"/>
          </g>
        </g>
        <g id="XMLID_41_" transform="translate(523.585 44.836)">
          <g id="XMLID_42_" transform="translate(0)">
            <path id="Tracé_100" data-name="Tracé 100" d="M272.024,69.5c-8.009,5.269-3.583,16.65-3.583,16.65l6.112-2.318c-3.372-6.323,3.161-13.067,3.161-13.067Z" transform="translate(-267.221 -69.5)" fill="#ebebeb"/>
          </g>
        </g>
      </g>
      <g id="XMLID_43_" transform="translate(851.491 268.006)">
        <g id="XMLID_44_">
          <g id="XMLID_45_">
            <g id="XMLID_46_">
              <path id="Tracé_101" data-name="Tracé 101" d="M450.832,171.6,422.8,254.009l82.831,16.44,4.848-87.046Z" transform="translate(-422.8 -171.6)" fill="#f5f5f5"/>
            </g>
          </g>
        </g>
        <g id="XMLID_47_" transform="translate(32.879 13.7)">
          <g id="XMLID_48_">
            <g id="XMLID_49_">
              <g id="XMLID_50_">
                <path id="Tracé_102" data-name="Tracé 102" d="M483.925,187.163a17.222,17.222,0,0,1-.843,2.318,25.461,25.461,0,0,1-4.215,5.48,22.71,22.71,0,0,1-8.852,5.48,25.388,25.388,0,0,1-12.646.632,24.43,24.43,0,0,1-11.592-5.269,19.349,19.349,0,0,1-5.9-8.431,28.148,28.148,0,0,1-1.475-6.744c0-1.686,0-2.529.211-2.529s0,3.583,2.318,8.852a19.643,19.643,0,0,0,5.9,7.8,26.045,26.045,0,0,0,10.96,4.848,25.444,25.444,0,0,0,12.014-.422,21.683,21.683,0,0,0,8.431-4.848C482.239,190.324,483.714,186.952,483.925,187.163Z" transform="translate(-438.4 -178.1)" fill="#fff"/>
              </g>
            </g>
          </g>
        </g>
      </g>
    </g>
    <g id="Desk" transform="translate(15.9 907.438)">
      <g id="XMLID_55_">
        <g id="XMLID_56_">
          <path id="XMLID_57_" d="M981.626,454.532c0,.211-216.245.632-482.863.632S15.9,454.954,15.9,454.532s216.034-.632,482.863-.632C765.381,453.9,981.626,454.111,981.626,454.532Z" transform="translate(-15.9 -453.9)" fill="#263238"/>
        </g>
      </g>
    </g>
    <g id="Screen" transform="translate(50.887 257.438)">
      <g id="XMLID_58_">
        <g id="XMLID_59_">
          <g id="XMLID_60_" transform="translate(0.632 0.632)">
            <rect id="XMLID_61_" width="514.056" height="402.351" fill="#fafafa"/>
          </g>
          <g id="XMLID_62_">
            <g id="XMLID_63_">
              <path id="XMLID_64_" d="M546.978,548.483c0-3.794-.211-159.549-.422-402.351l.422.422H33.132l.632-.632V548.272l-.422-.422c304.766.422,509.419.632,513.635.632-4.215,0-208.868.211-514.056.422H32.5V145.5H547.4v.422C547.189,388.934,546.978,544.689,546.978,548.483Z" transform="translate(-32.5 -145.5)" fill="#263238"/>
            </g>
          </g>
        </g>
        <g id="XMLID_160_" transform="translate(149.432 284.954)">
          <g id="XMLID_161_" transform="translate(-0.02 0.261)">
            <path id="XMLID_162_" d="M287.82,343.93h-152.8A31.572,31.572,0,0,1,103.4,312.315h0A31.572,31.572,0,0,1,135.015,280.7h152.8a31.572,31.572,0,0,1,31.615,31.615h0A31.439,31.439,0,0,1,287.82,343.93Z" transform="translate(-103.4 -280.7)" fill="#ffe600"/>
          </g>
          <text id="OK" transform="translate(107.981 39.261)" font-size="21" font-family="Nunito-Bold, Nunito" font-weight="700"><tspan x="-15.109" y="0">OK</tspan></text>
        </g>
        <g id="XMLID_174_" transform="translate(220.882 73.135)">
          <g id="XMLID_175_">
            <path id="XMLID_176_" d="M178.188,261.977a40.888,40.888,0,1,1,40.888-40.888A40.927,40.927,0,0,1,178.188,261.977Zm0-77.562a36.673,36.673,0,1,0,36.673,36.673A36.7,36.7,0,0,0,178.188,184.415Z" transform="translate(-137.3 -180.2)" fill="#ffc600"/>
          </g>
          <g id="XMLID_179_" transform="translate(25.568 28.664)">
            <path id="XMLID_180_" d="M161.8,218.67a3.908,3.908,0,0,1-1.475-.422c-3.583-3.161-9.7-8.641-10.538-9.7a2.134,2.134,0,1,1,3.583-2.318c.632.632,4.426,4.215,8.431,7.8l20.655-19.6a2.086,2.086,0,0,1,2.951,2.951l-22.13,20.866A3.907,3.907,0,0,1,161.8,218.67Z" transform="translate(-149.431 -193.8)" fill="#ffc600"/>
          </g>
        </g>
        <g id="XMLID_181_" transform="translate(1.897 39.413)">
          <g id="XMLID_182_">
            <path id="XMLID_183_" d="M545.981,164.832c0,.211-114.867.632-256.29.632-141.634,0-256.29-.211-256.29-.632s114.656-.632,256.29-.632S545.981,164.411,545.981,164.832Z" transform="translate(-33.4 -164.2)" fill="#263238"/>
          </g>
        </g>
        <g id="XMLID_184_" transform="translate(15.807 16.861)">
          <g id="XMLID_185_">
            <circle id="XMLID_186_" cx="2.951" cy="2.951" r="2.951" fill="#263238"/>
          </g>
          <g id="XMLID_187_" transform="translate(11.171)">
            <circle id="XMLID_188_" cx="2.951" cy="2.951" r="2.951" fill="#263238"/>
          </g>
          <g id="XMLID_189_" transform="translate(22.13)">
            <circle id="XMLID_190_" cx="2.951" cy="2.951" r="2.951" fill="#263238"/>
          </g>
        </g>
        <text id="Votre_commande_est_confirmé_" data-name="تم تقديم طلبك! بنجاح" transform="translate(265.411 210.215)" font-size="28" font-family="Nunito-Bold, Nunito" font-weight="700"><tspan x="-196.77" y="0">تم تقديم طلبك! بنجاح</tspan></text>
        <text id="Merci_pour_votre_commande." data-name="شكرا على ثقتكم." transform="translate(265.411 246.215)" font-size="21" font-family="Nunito-Regular, Nunito"><tspan x="-133.276" y="0">شكرا على ثقتكم.</tspan></text>
      </g>
    </g>
    <g id="Character" transform="translate(199.543 191.89)">
      <g id="XMLID_191_">
        <g id="XMLID_192_" transform="translate(688.925 293.755)">
          <path id="Tracé_103" data-name="Tracé 103" d="M444.654,296.612s25.5-15.6,31.4-10.96c8.22,6.534,11.171,17.7,11.171,17.7s13.489-51.427,26.346-49.53c7.377,1.054,3.794,6.955.422,14.121-3.161,6.744-8.431,31.4-8.431,31.4s24.449-29.086,31.615-28.453c5.48.422,6.323,5.269-1.686,13.068s-21.287,32.458-21.287,32.458,17.072-16.018,24.238-16.018c5.691,0,9.274,3.794,1.9,10.117S522,321.693,516.1,333.075c-7.166,14.121-22.763,49.319-22.763,49.319l-54.167-19.18s-8.852-36.041-9.274-44.682c0,0,.843-18.547.632-21.709,0-3.372,8.641-4.215,11.171,2.108,2.74,6.323,1.475,12.857,2.529,17.072s2.951,8.009,6.112,9.906,10.96,2.108,12.857-.211,4.426-9.063,4.848-13.278a69.961,69.961,0,0,0-.211-10.749S445.707,310.944,444.654,296.612Z" transform="translate(-429.9 -253.776)" fill="#ffbe9d"/>
        </g>
        <g id="XMLID_193_" transform="translate(0 457.82)">
          <g id="XMLID_194_" transform="translate(0 0)">
            <g id="XMLID_195_">
              <path id="XMLID_196_" d="M197.6,378.159l-37.727-14.121s-38.359-22.552-45.525-14.543c0,0-7.588-3.583-10.96,4.426-1.9,4.637,4.426,11.592,4.426,11.592s-2.108,2.108,1.265,8.852c3.161,6.955,39.624,28.664,39.624,28.664s47.422,25.713,66.391,38.149l33.09-44.893-4.637-1.686s-2.74-22.341-11.8-28.453c-9.906-6.534-21.92-24.027-24.66-30.982S191.7,331.369,193.8,345.7s13.278,17.915,12.224,27.61S197.6,378.159,197.6,378.159Z" transform="translate(-103.032 -331.618)" fill="#ffbe9d"/>
            </g>
            <g id="XMLID_197_" transform="translate(4.106 33.077)">
              <g id="XMLID_198_" transform="translate(0)">
                <ellipse id="XMLID_199_" cx="18.547" cy="0.632" rx="18.547" ry="0.632" transform="matrix(0.872, 0.489, -0.489, 0.872, 0.618, 0)" fill="#eb996e"/>
              </g>
            </g>
            <g id="XMLID_200_" transform="translate(11.526 18.069)">
              <g id="XMLID_201_">
                <path id="XMLID_202_" d="M152.128,363.394c0,.211-2.74-.843-6.744-2.74-4.215-1.9-9.7-4.426-15.807-7.588s-11.592-6.323-15.175-8.641c-1.9-1.265-3.372-2.318-4.426-2.951-1.054-.843-1.475-1.265-1.475-1.265,0-.211,2.318,1.475,6.323,3.583,3.794,2.318,9.274,5.269,15.386,8.431s11.592,5.691,15.807,7.8C149.81,361.918,152.128,363.183,152.128,363.394Z" transform="translate(-108.5 -340.192)" fill="#eb996e"/>
              </g>
            </g>
            <g id="XMLID_203_" transform="translate(30.284 33.052)">
              <g id="XMLID_204_">
                <path id="XMLID_205_" d="M150.279,376.175s-1.265-.632-3.372-1.9c-2.318-1.265-5.269-3.161-8.852-5.269h0V368.8c-1.686-3.583-3.794-7.8-6.323-12.224a26.661,26.661,0,0,0-4.848-6.323,6.017,6.017,0,0,0-7.377-.632,6.684,6.684,0,0,0-1.265,1.054v.211l.211.422a1.6,1.6,0,0,0,.422.843c.422,1.265,1.054,2.529,1.475,3.794,1.054,2.529,1.9,4.848,2.951,6.955,1.9,4.426,3.583,8.641,5.058,12.224v-.211q4.742,5.375,7.588,8.852c.843,1.054,1.475,1.9,2.108,2.529a6.234,6.234,0,0,0,.632.843,2.524,2.524,0,0,1-.843-.843c-.632-.632-1.265-1.475-2.108-2.318-1.9-2.108-4.637-5.058-7.8-8.641h0c-1.475-3.583-3.372-7.588-5.269-12.014-.843-2.318-1.9-4.637-2.951-6.955-.422-1.265-1.054-2.529-1.475-3.794-.211-.422-.211-.632-.422-1.054l-.211-.422a1.593,1.593,0,0,0-.211-.843,1.484,1.484,0,0,1,.843-1.054c.211-.211.632-.422.843-.632a8.5,8.5,0,0,1,4.637-1.265,6.493,6.493,0,0,1,4.215,1.9A45.562,45.562,0,0,1,133,355.731a116.021,116.021,0,0,1,6.323,12.435l-.211-.211c3.583,2.318,6.534,4.215,8.641,5.691A22.373,22.373,0,0,0,150.279,376.175Z" transform="translate(-117.4 -347.3)" fill="#eb996e"/>
              </g>
            </g>
          </g>
          <g id="XMLID_206_" transform="translate(70.54 58.133)">
            <g id="XMLID_207_">
              <path id="XMLID_208_" d="M166.85,363.415c0,.211-1.9-.422-4.637-1.054a38.257,38.257,0,0,0-11.171-1.9,21.859,21.859,0,0,0-10.749,2.529,24.406,24.406,0,0,0-3.794,2.951,11.7,11.7,0,0,1,3.372-3.583,20.665,20.665,0,0,1,11.171-3.161,37.115,37.115,0,0,1,11.381,2.318C165.164,362.572,166.85,363.2,166.85,363.415Z" transform="translate(-136.5 -359.2)" fill="#eb996e"/>
            </g>
          </g>
          <g id="XMLID_209_" transform="translate(94.246 52.422)">
            <g id="XMLID_210_">
              <path id="XMLID_211_" d="M151.441,356.511c.211.211-.632,1.9-1.686,4-.843,2.108-1.475,3.794-1.9,3.794-.211,0-.211-2.108.843-4.215C149.966,357.775,151.23,356.3,151.441,356.511Z" transform="translate(-147.748 -356.491)" fill="#eb996e"/>
            </g>
          </g>
        </g>
        <g id="XMLID_212_" transform="translate(314.639 65.373)">
          <g id="XMLID_213_">
            <path id="XMLID_214_" d="M252.915,411.156c2.529-17.7,23.184-43.207,41.521-43.207-10.538-15.175-10.749-36.673-.422-51.848,6.955-10.538,18.547-18.337,23.184-30.139,5.48-13.278,1.265-28.243,1.9-42.575.843-20.866,11.592-40.045,22.13-58.171,9.7-16.65,21.5-34.776,40.678-38.992,12.014-2.529,24.66,1.265,36.041,6.112,54.167,23.184,96.53,71.871,110.863,128.145,3.372,13.489,5.691,28.032,15.175,38.359,9.906,10.96,27.4,17.072,30.35,31.4,2.108,10.328-4.426,20.655-3.583,31.193.843,8.852,17.283,34.355,21.077,42.364,6.534,13.7,4.215,28.664-2.529,42.364s-23.606,27.189-38.57,30.983L382.536,441.085c-15.807,9.063-31.615,43.839-49.741,45.947s-40.256,10.117-57.75-9.063C256.709,458.157,250.175,428.86,252.915,411.156Z" transform="translate(-252.316 -145.417)" fill="#263238"/>
          </g>
          <g id="XMLID_215_" transform="translate(236.235 98.392)">
            <path id="XMLID_216_" d="M407.607,192.1c-1.9,14.121,1.9,37.305,9.7,49.319,5.058,8.009,13.7,13.278,22.341,17.915,8.431,4.637,17.493,9.063,23.816,16.229,6.534,7.166,9.906,17.915,5.691,26.346,15.175,5.691,21.92,24.87,16.44,39.835s-20.866,24.87-36.673,28.032l-69.342-20.866L364.4,260.388,404.445,192.1" transform="translate(-364.4 -192.1)" fill="#263238"/>
          </g>
          <g id="XMLID_217_" transform="translate(287.872 188.599)">
            <g id="XMLID_218_">
              <path id="XMLID_219_" d="M388.9,234.9l1.265.632c.843.422,2.318,1.054,3.794,1.9a55.183,55.183,0,0,1,12.224,10.117,52.876,52.876,0,0,1,6.534,9.063,60.3,60.3,0,0,1,5.058,11.8,50.109,50.109,0,0,1,.211,29.507l-.211-.632a54.142,54.142,0,0,1,11.381,8.641,53.242,53.242,0,0,1,15.175,30.983,50.415,50.415,0,0,1-5.058,27.821,51.7,51.7,0,0,1-11.381,15.386c-1.686,1.475-2.951,2.529-4,3.372a8.342,8.342,0,0,0-1.475,1.054s.422-.422,1.475-1.265a39.981,39.981,0,0,0,3.794-3.372,51.711,51.711,0,0,0,10.96-15.386,50.868,50.868,0,0,0,4.637-27.4,51.4,51.4,0,0,0-14.964-30.139,50.813,50.813,0,0,0-10.96-8.431l-.422-.211.211-.422a51.649,51.649,0,0,0,0-28.875,53.239,53.239,0,0,0-4.848-11.592,41.385,41.385,0,0,0-6.323-8.852,52.2,52.2,0,0,0-11.8-10.327c-1.475-1.054-2.951-1.686-3.583-2.108A12.479,12.479,0,0,1,388.9,234.9Z" transform="translate(-388.9 -234.9)" fill="#455a64"/>
            </g>
          </g>
        </g>
        <g id="XMLID_220_" transform="translate(106.791 315.305)">
          <g id="XMLID_221_" transform="translate(0 30.35)">
            <path id="XMLID_222_" d="M444.345,278.4s-30.982,9.484-41.942,25.292c-7.588,11.171-86.414,181.68-86.414,181.68l-119.5-35.83L153.7,506.026l132.993,73.768a80.594,80.594,0,0,0,79.037-.422h0a80.215,80.215,0,0,0,31.826-33.09l33.722-64.7Z" transform="translate(-153.7 -278.4)" fill="#ff6f00"/>
          </g>
          <g id="XMLID_223_" transform="translate(251.887)">
            <g id="XMLID_224_">
              <path id="Tracé_104" data-name="Tracé 104" d="M280.143,665.508l18.758-80.3L284.78,526.824c-9.063-30.139-16.861-79.037-6.955-118.45l33.09-113.392,36.252-16.65L430.208,264c3.161,1.054,86.835,24.66,86.835,24.66,11.592,2.74,16.229,4.637,16.229,4.637l9.7,62.176L514.092,457.9l-12.646,102.01,27.61,106.015H280.143Z" transform="translate(-273.211 -264)" fill="#ff6f00"/>
            </g>
            <g id="XMLID_225_" transform="translate(0.82 151.54)">
              <g id="XMLID_226_">
                <path id="XMLID_227_" d="M273.6,335.9" transform="translate(-273.6 -335.9)" fill="none" stroke="#fff" stroke-miterlimit="10" stroke-width="0.02"/>
              </g>
            </g>
            <g id="XMLID_228_" transform="translate(195.567 158.917)">
              <g id="XMLID_229_">
                <path id="XMLID_230_" d="M366,339.4" transform="translate(-366 -339.4)" fill="none" stroke="#fff" stroke-miterlimit="10" stroke-width="0.02"/>
              </g>
            </g>
          </g>
          <g id="XMLID_231_" transform="translate(306.096 12.224)">
            <path id="Tracé_105" data-name="Tracé 105" d="M299.709,280.549,323.736,269.8l108.544,1.475,25.713,14.964S368.208,385.3,345.656,388.672C289.171,396.681,299.709,280.549,299.709,280.549Z" transform="translate(-298.931 -269.8)" fill="#ffbe9d"/>
          </g>
          <g id="XMLID_232_" transform="translate(469.374 28.243)">
            <path id="XMLID_233_" d="M416.656,277.4s16.229,3.583,30.139,33.512c13.911,29.718,36.462,112.549,36.462,112.549l9.7-87.678,78.615,8.641L556.393,554.135s-27.821,40.256-74.4,36.673c-46.579-3.794-105.593-150.7-105.593-150.7Z" transform="translate(-376.4 -277.4)" fill="#ff6f00"/>
          </g>
          <g id="XMLID_234_" transform="translate(564.218 86.835)">
            <g id="XMLID_235_">
              <path id="XMLID_236_" d="M421.4,499.947v-1.9c0-1.475.211-3.372.422-5.691.211-5.058.843-12.224,1.686-20.866,1.686-17.7,4.637-41.942,8.22-68.92,3.583-26.767,6.745-51.216,8.641-68.92.843-8.852,1.686-16.018,2.108-20.866q.316-3.478.632-5.691c0-.632.211-1.054.211-1.475V307.1c0,1.475-.211,3.372-.422,5.691-.211,5.058-.843,12.224-1.686,20.866-1.686,17.7-4.637,41.942-8.22,68.92-3.583,26.767-6.745,51.216-8.641,68.709-.843,8.852-1.686,16.018-2.108,20.866q-.316,3.478-.632,5.691c0,.632-.211,1.054-.211,1.475Z" transform="translate(-421.4 -305.2)" fill="#263238"/>
            </g>
          </g>
          <g id="XMLID_237_" transform="translate(157.34 238.165)">
            <g id="XMLID_238_">
              <path id="XMLID_239_" d="M234.777,421.261a15.238,15.238,0,0,1-.843-1.475q-.632-1.581-1.9-4.426a68.209,68.209,0,0,1-2.951-31.826c.211-2.108.632-3.583.843-4.848.211-1.054.422-1.686.632-1.686s-.211,2.529-.632,6.534a78.448,78.448,0,0,0,0,15.807,80.808,80.808,0,0,0,3.161,15.6A51.359,51.359,0,0,0,234.777,421.261Z" transform="translate(-228.352 -377)" fill="#263238"/>
            </g>
          </g>
          <g id="XMLID_240_" transform="translate(159.338 235.425)">
            <g id="XMLID_241_">
              <path id="XMLID_242_" d="M246.794,424.808a7.519,7.519,0,0,1-1.475-1.475c-.843-1.054-1.9-2.529-3.372-4.637a89.939,89.939,0,0,1-8.22-16.861,83.119,83.119,0,0,1-4-18.337c-.211-2.318-.422-4.426-.422-5.691s0-2.108.211-2.108.422,2.951,1.054,7.588a88.955,88.955,0,0,0,4.426,18.126,99.239,99.239,0,0,0,7.8,16.861C245.318,422.279,247,424.6,246.794,424.808Z" transform="translate(-229.3 -375.7)" fill="#263238"/>
            </g>
          </g>
          <g id="XMLID_243_" transform="translate(248.083 96.952)">
            <g id="XMLID_244_">
              <path id="XMLID_245_" d="M293.1,310a5.066,5.066,0,0,1-.422,1.686,38.773,38.773,0,0,0-1.265,4.848c-1.265,4.215-2.951,10.327-5.058,17.7-4,14.964-9.7,35.619-12.435,59.225-1.265,11.8-1.686,22.973-.422,33.3a154.135,154.135,0,0,0,5.48,26.556c2.318,7.377,4.426,13.278,5.691,17.493.632,1.9,1.265,3.583,1.686,4.637s.632,1.686.422,1.686c0,0-.211-.632-.632-1.686s-1.054-2.74-1.9-4.637c-1.475-4-3.794-9.906-6.112-17.283a149.983,149.983,0,0,1-5.9-26.767,137.941,137.941,0,0,1,.422-33.512c2.74-23.606,8.641-44.471,12.857-59.225,2.108-7.377,4-13.489,5.269-17.493.632-1.9,1.054-3.583,1.475-4.848A9.614,9.614,0,0,0,293.1,310Z" transform="translate(-271.406 -310)" fill="#263238"/>
            </g>
          </g>
          <g id="XMLID_246_" transform="translate(457.896 33.722)">
            <g id="XMLID_247_">
              <path id="XMLID_248_" d="M402.665,481.492a.736.736,0,0,1-.211-.422,10.272,10.272,0,0,1-.632-1.475c-.632-1.475-1.475-3.372-2.74-6.112-1.265-2.529-2.74-5.9-4.215-9.7s-3.161-8.22-5.058-12.857c-1.9-4.848-3.583-10.117-5.691-15.807-.843-2.951-1.9-5.9-2.74-9.063-.422-1.475-1.054-3.161-1.475-4.637-.422-1.686-.843-3.161-1.265-4.848a206.925,206.925,0,0,1-7.377-43.628A123.814,123.814,0,0,1,375.9,328.9a76.981,76.981,0,0,1,17.494-31.615,59.8,59.8,0,0,1,19.6-14.332c2.74-1.054,4.848-1.9,6.323-2.318a6.516,6.516,0,0,1,1.686-.422.923.923,0,0,0,.632-.211,1.631,1.631,0,0,0-.632.211,14.5,14.5,0,0,1-1.686.632,38.014,38.014,0,0,0-6.112,2.529,63.5,63.5,0,0,0-19.18,14.543,80.146,80.146,0,0,0-17.072,31.193c-4,13.068-5.269,28.032-4.426,43.628a207.23,207.23,0,0,0,7.377,43.418c.422,1.686.843,3.161,1.265,4.848a29.859,29.859,0,0,0,1.475,4.637c.843,3.161,1.9,6.112,2.74,9.063,2.108,5.691,3.794,10.96,5.48,15.807,1.9,4.848,3.583,9.063,5.058,12.857s2.951,6.955,4,9.7c1.054,2.529,1.9,4.637,2.529,6.112a14.535,14.535,0,0,0,.632,1.686C402.455,481.281,402.665,481.492,402.665,481.492Z" transform="translate(-370.954 -280)" fill="#263238"/>
            </g>
          </g>
          <g id="XMLID_249_" transform="translate(452.671 140.159)" opacity="0.3">
            <g id="XMLID_250_">
              <path id="XMLID_251_" d="M375.483,330.5c-10.328,48.476-10.328,98.638,7.377,145.006,1.054,2.74,5.058,12.224,8.009,12.435,3.583.211,5.48-4.426,6.112-8.009,1.265-7.377,2.108-19.6,3.372-26.978,1.686-9.274,3.794-30.772,3.794-30.772s-8.431-19.39-12.224-29.929c-6.955-19.39-12.857-37.727-16.018-60.279" transform="translate(-368.475 -330.5)"/>
            </g>
          </g>
          <g id="XMLID_252_" transform="translate(320.152 328.372)">
            <g id="XMLID_253_">
              <path id="XMLID_254_" d="M436.7,419.8a9.638,9.638,0,0,1-.843,1.265c-.632.843-1.475,2.108-2.529,3.583l-1.9,2.529a26.7,26.7,0,0,1-2.318,2.74A80.484,80.484,0,0,1,423,436.661c-1.265,1.265-2.529,2.318-3.794,3.794-1.265,1.265-2.951,2.529-4.426,3.794a97.332,97.332,0,0,1-10.117,7.587,139.95,139.95,0,0,1-25.713,13.489,138.331,138.331,0,0,1-28.032,7.377c-4.426.421-8.641,1.054-12.646,1.265-1.9,0-3.794.211-5.691.211s-3.583-.211-5.269-.211a57.686,57.686,0,0,1-9.063-.843c-1.265-.211-2.529-.211-3.794-.421l-3.161-.632c-1.686-.422-3.161-.632-4.215-.843a6.583,6.583,0,0,1-1.475-.422,6.735,6.735,0,0,1,1.475.211c1.054.211,2.529.422,4.215.632a12.752,12.752,0,0,0,3.161.422c1.054.211,2.318.211,3.794.422,2.74.211,5.691.632,9.063.632h5.269c1.9,0,3.794-.211,5.691-.211a88.826,88.826,0,0,0,12.435-1.265,156.336,156.336,0,0,0,27.821-7.377,144.6,144.6,0,0,0,25.5-13.278,97.329,97.329,0,0,0,10.117-7.588c1.475-1.265,2.951-2.318,4.426-3.583,1.265-1.265,2.529-2.529,3.794-3.583,2.529-2.318,4.426-4.637,6.323-6.534a32.406,32.406,0,0,1,2.529-2.74l1.9-2.529a26.5,26.5,0,0,1,2.74-3.372A5.218,5.218,0,0,1,436.7,419.8Z" transform="translate(-305.6 -419.8)" fill="#263238"/>
            </g>
          </g>
          <g id="XMLID_255_" transform="translate(403.182 296.336)">
            <g id="XMLID_256_">
              <path id="XMLID_257_" d="M375.989,404.6a18.249,18.249,0,0,1-.211,2.318,35.236,35.236,0,0,1-1.475,6.112A75.776,75.776,0,0,1,365.661,432a69.728,69.728,0,0,1-13.7,15.6q-3.161,2.529-5.058,3.794l-1.9,1.265c-.211-.211,2.529-2.108,6.534-5.691a76.479,76.479,0,0,0,13.278-15.807,80.166,80.166,0,0,0,8.852-18.547C375.145,407.762,375.778,404.6,375.989,404.6Z" transform="translate(-344.995 -404.6)" fill="#263238"/>
            </g>
          </g>
        </g>
        <g id="XMLID_258_" transform="translate(368.676)">
          <g id="XMLID_259_" transform="translate(133.721)">
            <g id="XMLID_260_" transform="translate(0 52.691)">
              <path id="XMLID_261_" d="M341.611,139.4c29.507.211,58.171,16.861,73.136,42.153s15.386,58.593,1.265,84.306c-4.848,8.852-11.8,17.072-21.287,20.233,3.161-50.373-16.861-101.8-53.324-136.787" transform="translate(-341.4 -139.4)" fill="#ffc700"/>
            </g>
            <g id="XMLID_262_" transform="translate(32.846 11.381)">
              <path id="XMLID_263_" d="M358.7,168.908c-4.426-9.063.211-20.444,8.009-26.767s17.915-9.063,27.821-11.381c9.7-2.318,20.023-4.848,27.821-10.96-1.054,15.807-5.058,32.036-15.386,44.05-10.117,12.014-27.821,18.758-42.575,12.646" transform="translate(-356.984 -119.8)" fill="#ffc800"/>
            </g>
            <g id="XMLID_264_" transform="translate(0.887 0.211)">
              <path id="XMLID_265_" d="M385.616,185.106c-6.745,2.74-14.754,1.054-20.655-2.951-5.9-4.215-10.328-10.327-13.911-16.65-4.426-7.8-7.8-16.229-8.852-25.081s0-18.126,4.426-25.924c11.592,12.224,24.238,22.552,30.772,38.148,3.794,9.063,3.372,23.816-.843,32.669" transform="translate(-341.821 -114.5)" fill="#ffca00"/>
            </g>
            <g id="XMLID_266_" transform="translate(60.49 121.822)">
              <g id="XMLID_267_">
                <path id="XMLID_268_" d="M386.961,172.2s.211,1.054.632,2.951a16.381,16.381,0,0,1,.422,3.372c.211,1.265.211,2.951.422,4.637a78.173,78.173,0,0,1-.211,12.014,94.418,94.418,0,0,1-2.318,14.543,111.531,111.531,0,0,1-4.426,14.121,89.63,89.63,0,0,1-5.269,10.96c-.843,1.475-1.686,2.74-2.318,4s-1.475,2.108-1.9,2.951c-1.054,1.475-1.686,2.318-1.9,2.318a13.511,13.511,0,0,1,1.475-2.529c.422-.843,1.054-1.9,1.686-2.951.632-1.265,1.475-2.529,2.318-4a91.293,91.293,0,0,0,5.058-10.96,108.05,108.05,0,0,0,4.426-13.911,94.418,94.418,0,0,0,2.318-14.543,80.714,80.714,0,0,0,.422-12.014c0-1.686-.211-3.161-.211-4.637,0-1.265-.211-2.529-.211-3.372A13.474,13.474,0,0,1,386.961,172.2Z" transform="translate(-370.1 -172.2)" fill="#263238"/>
              </g>
            </g>
            <g id="XMLID_269_" transform="translate(32.313 31.615)">
              <g id="XMLID_270_">
                <path id="XMLID_271_" d="M395.235,163.122s-.843.632-2.318,1.9a26.994,26.994,0,0,1-7.588,2.951c-6.745,1.475-16.65,1.265-26.978-1.475h-.211v-.211c-.211-.632-.211-1.265-.422-1.9a49.421,49.421,0,0,1-.632-15.6,27.02,27.02,0,0,1,4.426-12.014,19.687,19.687,0,0,1,6.323-5.9c1.9-1.054,2.74-1.475,2.74-1.475s-.843.632-2.529,1.686a23.412,23.412,0,0,0-5.9,6.112,26.023,26.023,0,0,0-4,11.8,43.087,43.087,0,0,0,.843,15.386c.211.632.211,1.265.422,1.9l-.422-.422c10.117,2.74,19.812,3.161,26.346,1.9a28.627,28.627,0,0,0,7.588-2.529A24.8,24.8,0,0,1,395.235,163.122Z" transform="translate(-356.731 -129.4)" fill="#263238"/>
              </g>
            </g>
            <g id="XMLID_272_" transform="translate(34.144 38.061)">
              <g id="XMLID_273_">
                <path id="XMLID_274_" d="M402.914,132.546c0,.211-3.161.632-8.009,2.108a46.015,46.015,0,0,0-8.22,3.161,87.117,87.117,0,0,0-9.484,5.269,73.371,73.371,0,0,0-8.431,6.534,81.9,81.9,0,0,0-6.112,6.323c-3.161,3.794-4.848,6.534-5.058,6.534a9.318,9.318,0,0,1,1.054-1.9,51.621,51.621,0,0,1,3.372-5.058,42.542,42.542,0,0,1,6.112-6.534,58.536,58.536,0,0,1,8.641-6.744,89.21,89.21,0,0,1,9.7-5.269,68.312,68.312,0,0,1,8.431-2.951c2.529-.632,4.426-1.054,5.9-1.265C402.071,132.546,402.914,132.335,402.914,132.546Z" transform="translate(-357.6 -132.459)" fill="#263238"/>
              </g>
            </g>
            <g id="XMLID_275_" transform="translate(17.072 53.534)">
              <g id="XMLID_276_">
                <path id="XMLID_277_" d="M376.689,156.872v.632a3.364,3.364,0,0,1-.632,1.686,12.8,12.8,0,0,1-4.215,5.269,15.926,15.926,0,0,1-9.484,3.161A14.185,14.185,0,0,1,350.132,149.5a14.142,14.142,0,0,1,6.323-7.8,12.955,12.955,0,0,1,6.323-1.9h1.9a.923.923,0,0,1,.632.211c0,.211-.843,0-2.318.211a15.972,15.972,0,0,0-6.112,2.318,13.757,13.757,0,0,0-5.691,7.377,12.849,12.849,0,0,0,20.233,13.91,14.053,14.053,0,0,0,4.215-4.848A7.614,7.614,0,0,0,376.689,156.872Z" transform="translate(-349.5 -139.8)" fill="#263238"/>
              </g>
            </g>
            <g id="XMLID_278_" transform="translate(18.53 65.97)">
              <g id="XMLID_279_">
                <path id="XMLID_280_" d="M350.42,150.758a2.943,2.943,0,0,1,.211-2.74,4.074,4.074,0,0,1,2.529-1.9,11.055,11.055,0,0,1,3.794-.422c5.269.422,9.063,2.529,8.852,2.74s-4-1.265-9.063-1.475c-2.529-.211-4.637.422-5.48,1.686C350.42,149.7,350.63,150.758,350.42,150.758Z" transform="translate(-350.192 -145.7)" fill="#263238"/>
              </g>
            </g>
            <g id="XMLID_281_" transform="translate(1.054)">
              <g id="XMLID_282_">
                <path id="XMLID_283_" d="M346.537,114.4a25.719,25.719,0,0,0-3.161,9.063A54.855,54.855,0,0,0,342.954,134a70.374,70.374,0,0,0,1.054,12.857,60.92,60.92,0,0,0,9.063,21.287,66.9,66.9,0,0,0,4.215,5.691c1.054,1.265,1.686,1.9,1.686,1.9-.211.211-2.951-2.318-6.534-7.166a60.247,60.247,0,0,1-9.484-21.5A72.6,72.6,0,0,1,341.9,134a52.028,52.028,0,0,1,.843-10.538,24.617,24.617,0,0,1,2.318-6.744A9.639,9.639,0,0,1,346.537,114.4Z" transform="translate(-341.9 -114.4)" fill="#263238"/>
              </g>
            </g>
            <g id="XMLID_284_" transform="translate(16.643 25.081)">
              <g id="XMLID_285_">
                <path id="XMLID_286_" d="M349.3,126.3c.211,0,1.265,1.265,2.951,3.583a62.167,62.167,0,0,1,5.691,9.7,73.558,73.558,0,0,1,3.794,10.538c.632,2.74.843,4.637.632,4.637-.422,0-1.686-6.955-5.48-14.754C353.309,132.2,349.093,126.511,349.3,126.3Z" transform="translate(-349.296 -126.3)" fill="#263238"/>
              </g>
            </g>
            <g id="XMLID_287_" transform="translate(13.058 38.14)">
              <g id="XMLID_288_">
                <path id="XMLID_289_" d="M347.6,132.5c.211-.211,3.794,3.372,8.431,7.588s8.431,7.588,8.22,8.009c-.211.211-4.215-2.951-8.852-7.166S347.394,132.715,347.6,132.5Z" transform="translate(-347.596 -132.496)" fill="#263238"/>
              </g>
            </g>
            <g id="XMLID_290_" transform="translate(29.718 87.599)">
              <g id="XMLID_291_">
                <path id="XMLID_292_" d="M394.07,156.042a.206.206,0,0,1-.211.211c-.211.211-.632.422-.843.843-.843.632-2.108,1.686-3.583,2.74a59.819,59.819,0,0,1-13.278,6.534,54,54,0,0,1-14.543,2.74h-4.426a37.64,37.64,0,0,0,4.426-.211,62.266,62.266,0,0,0,14.332-2.74,60.329,60.329,0,0,0,13.278-6.323c1.475-1.054,2.74-1.9,3.583-2.529.422-.211.632-.422,1.054-.632C393.859,156.042,394.07,155.831,394.07,156.042Z" transform="translate(-355.5 -155.963)" fill="#fafafa"/>
              </g>
            </g>
            <g id="XMLID_293_" transform="translate(42.364 113.102)">
              <g id="XMLID_294_">
                <path id="XMLID_295_" d="M399.859,168.142a.206.206,0,0,1-.211.211c-.211.211-.632.422-.843.843-.843.632-2.108,1.686-3.583,2.74a69.855,69.855,0,0,1-13.278,6.744,71.443,71.443,0,0,1-14.332,3.372,37.634,37.634,0,0,1-4.426.211h0c1.054,0,2.529-.211,4.426-.422a68.321,68.321,0,0,0,14.332-3.372,57.7,57.7,0,0,0,13.067-6.534c1.686-1.054,2.74-1.9,3.583-2.529.422-.211.632-.422,1.054-.632C399.649,168.142,399.859,167.931,399.859,168.142Z" transform="translate(-361.5 -168.063)" fill="#fafafa"/>
              </g>
            </g>
            <g id="XMLID_296_" transform="translate(50.794 150.276)">
              <g id="XMLID_297_">
                <path id="XMLID_298_" d="M392.056,185.7a6.239,6.239,0,0,1-.843.632c-.632.422-1.475.843-2.529,1.475a35.491,35.491,0,0,1-9.274,3.583,37.315,37.315,0,0,1-9.906,1.265h-2.951a2.557,2.557,0,0,1-1.054-.211h4a36.155,36.155,0,0,0,9.7-1.475,44.941,44.941,0,0,0,9.274-3.583c1.054-.632,2.108-1.054,2.74-1.475A2.18,2.18,0,0,0,392.056,185.7Z" transform="translate(-365.5 -185.7)" fill="#fafafa"/>
              </g>
            </g>
            <g id="XMLID_299_" transform="translate(78.675 144.459)">
              <g id="XMLID_300_">
                <ellipse id="XMLID_301_" cx="2.951" cy="0.211" rx="2.951" ry="0.211" transform="translate(0 1.116) rotate(-10.9)" fill="#fafafa"/>
              </g>
            </g>
            <g id="XMLID_302_" transform="translate(53.941 187.749)">
              <g id="XMLID_303_">
                <path id="XMLID_304_" d="M376.492,204.155c0,.211-2.108.422-4.848.211a18.138,18.138,0,0,1-4.637-.843c0-.211,2.108.422,4.848.422C374.384,204.155,376.492,203.944,376.492,204.155Z" transform="translate(-366.993 -203.48)" fill="#fafafa"/>
              </g>
            </g>
            <g id="XMLID_305_" transform="translate(17.585 77.818)">
              <g id="XMLID_306_" transform="translate(0 0)">
                <ellipse id="XMLID_307_" cx="3.372" cy="0.211" rx="3.372" ry="0.211" transform="translate(0 3.258) rotate(-28.887)" fill="#fafafa"/>
              </g>
            </g>
            <g id="XMLID_308_" transform="translate(1.686 55.987)">
              <g id="XMLID_309_">
                <path id="XMLID_310_" d="M353.581,141.04c0,.211-2.951,1.054-6.112,3.372a49.68,49.68,0,0,0-5.269,4.848s.422-.632,1.265-1.686a15.307,15.307,0,0,1,3.794-3.372,22.672,22.672,0,0,1,4.426-2.318C352.738,141.04,353.581,140.829,353.581,141.04Z" transform="translate(-342.2 -140.964)" fill="#fafafa"/>
              </g>
            </g>
            <g id="XMLID_311_" transform="translate(30.54 68.077)">
              <g id="XMLID_312_">
                <path id="XMLID_313_" d="M357.386,159.135c-.211,0,.632-2.951.211-6.323-.422-3.583-1.9-6.112-1.686-6.112a10.052,10.052,0,0,1,.843,1.686,18.691,18.691,0,0,1,1.265,4.426,16.905,16.905,0,0,1,0,4.637C357.6,158.5,357.386,159.135,357.386,159.135Z" transform="translate(-355.89 -146.7)" fill="#fafafa"/>
              </g>
            </g>
            <g id="XMLID_314_" transform="translate(35.315 11.803)">
              <g id="XMLID_315_">
                <path id="XMLID_316_" d="M420,120s-.843,1.054-2.318,2.529a43.087,43.087,0,0,1-7.377,5.691,92.8,92.8,0,0,1-12.224,6.323c-4.637,2.108-9.906,4.215-15.175,6.744A60.486,60.486,0,0,0,369,150.139a34.078,34.078,0,0,0-8.22,10.749,26.553,26.553,0,0,0-2.529,8.641,14.094,14.094,0,0,0,0,3.372V169.53a32.347,32.347,0,0,1,2.318-8.852,34.079,34.079,0,0,1,8.22-10.749,58.119,58.119,0,0,1,14.121-9.063c5.269-2.529,10.538-4.637,15.386-6.744a125.179,125.179,0,0,0,12.014-6.112,55.5,55.5,0,0,0,7.377-5.48,17.225,17.225,0,0,0,1.9-1.686A2.307,2.307,0,0,1,420,120Z" transform="translate(-358.156 -120)" fill="#fafafa"/>
              </g>
            </g>
            <g id="XMLID_317_" transform="translate(49.108 36.797)">
              <g id="XMLID_318_">
                <path id="XMLID_319_" d="M407.064,131.946a.653.653,0,0,1-.211.422c-.211.422-.632.843-.843,1.265-.843,1.054-1.9,2.74-3.583,4.637a92.563,92.563,0,0,1-13.7,13.489,76.911,76.911,0,0,1-16.44,9.906c-2.318,1.054-4,1.686-5.48,2.318a5.361,5.361,0,0,1-1.475.422,1.631,1.631,0,0,1-.632.211.653.653,0,0,0,.422-.211,10.27,10.27,0,0,1,1.475-.632,45.4,45.4,0,0,0,5.269-2.318A88.6,88.6,0,0,0,388.1,151.336a92.528,92.528,0,0,0,13.7-13.278c1.475-1.9,2.74-3.372,3.583-4.637a4.411,4.411,0,0,0,.843-1.265C407.064,131.946,407.064,131.735,407.064,131.946Z" transform="translate(-364.7 -131.859)" fill="#fafafa"/>
              </g>
            </g>
            <g id="XMLID_320_" transform="translate(3.583 7.166)">
              <g id="XMLID_321_">
                <path id="XMLID_322_" d="M343.1,117.8a51.631,51.631,0,0,1,6.323,3.372,52.172,52.172,0,0,1,12.857,11.592,56.12,56.12,0,0,1,8.431,15.175,43.374,43.374,0,0,1,1.9,6.955.653.653,0,0,0-.211-.422,13.429,13.429,0,0,1-.422-1.475,27.942,27.942,0,0,0-1.686-5.058,53.868,53.868,0,0,0-21.077-26.767c-1.9-1.265-3.372-2.108-4.426-2.74l-1.265-.632Z" transform="translate(-343.1 -117.8)" fill="#fafafa"/>
              </g>
            </g>
          </g>
          <g id="XMLID_323_" transform="translate(0 33.38)">
            <g id="XMLID_324_">
              <g id="XMLID_325_" transform="translate(0 53.034)">
                <g id="XMLID_326_">
                  <path id="Tracé_106" data-name="Tracé 106" d="M309.455,155.4c.843,11.171-6.534,21.077-13.911,29.507s-15.807,17.072-17.283,28.243c-2.951,19.6,16.44,37.938,12.435,57.328-2.108,10.327-10.749,18.758-12.224,29.3-1.475,10.117,4,20.233,10.749,27.821,6.745,7.8,14.543,6.534,20.655,14.964A81.949,81.949,0,0,0,335.8,365.533c21.5,11.8,47.422-5.269,57.75-8.431" transform="translate(-277.954 -155.4)" fill="#263238"/>
                </g>
              </g>
              <g id="XMLID_327_" transform="translate(31.253)">
                <g id="XMLID_328_">
                  <path id="Tracé_107" data-name="Tracé 107" d="M456.162,229.007c9.906-4.426,10.749-39.835-14.121-44.05-9.906-1.686-18.337-6.534-26.767-12.224-7.377-5.058-9.7-17.7-16.018-24.027-15.386-15.6-39.624-22.13-60.911-16.44s-38.781,23.606-44.05,45.1c-3.583,14.332-1.054,31.4,10.327,41.1,13.278,11.171,32.669,8.641,49.741,5.269,16.861-3.372,36.041-6.955,50.162,3.161,8.431,5.9,13.489,15.807,18.547,24.66,5.269,9.063,11.8,18.126,21.5,21.709,0,0,7.588,17.7,1.475,29.929s7.166-8.641,7.166-8.641,24.238-43.418,2.951-65.548" transform="translate(-292.782 -130.238)" fill="#263238"/>
                </g>
              </g>
              <g id="XMLID_329_" transform="translate(21.478 49.067)">
                <g id="XMLID_330_">
                  <g id="XMLID_331_">
                    <g id="XMLID_332_">
                      <g id="XMLID_333_">
                        <g id="XMLID_334_">
                          <g id="XMLID_335_">
                            <g id="XMLID_336_">
                              <g id="XMLID_337_">
                                <g id="XMLID_338_">
                                  <g id="XMLID_339_">
                                    <g id="XMLID_340_">
                                      <g id="XMLID_341_">
                                        <g id="XMLID_342_">
                                          <g id="XMLID_343_">
                                            <path id="Tracé_108" data-name="Tracé 108" d="M335.051,453.188c-.211-23.184,0-88.521,0-88.311,0,0-36.884-6.112-44.471-54.377-3.794-24.027-2.529-63.23-.422-95.477,1.9-28.875,21.077-64.283,49.951-61.333l90,22.973a16.847,16.847,0,0,1,15.175,17.283h0L439.8,417.358Z" transform="translate(-288.145 -153.518)" fill="#ffbe9d"/>
                                          </g>
                                        </g>
                                      </g>
                                    </g>
                                  </g>
                                </g>
                              </g>
                            </g>
                            <g id="XMLID_344_" transform="translate(10.338 75.627)">
                              <g id="XMLID_345_" transform="translate(7.05 7.786)">
                                <g id="XMLID_346_">
                                  <g id="XMLID_347_">
                                    <g id="XMLID_348_">
                                      <g id="XMLID_349_">
                                        <g id="XMLID_350_">
                                          <g id="XMLID_351_">
                                            <g id="XMLID_352_">
                                              <path id="Tracé_109" data-name="Tracé 109" d="M296.406,198.586a6.249,6.249,0,0,0,5.9,6.323,5.8,5.8,0,0,0,6.323-5.48,6.249,6.249,0,0,0-5.9-6.323A5.8,5.8,0,0,0,296.406,198.586Z" transform="translate(-296.395 -193.094)" fill="#263238"/>
                                            </g>
                                          </g>
                                        </g>
                                      </g>
                                    </g>
                                  </g>
                                </g>
                              </g>
                              <g id="XMLID_353_">
                                <g id="XMLID_354_">
                                  <g id="XMLID_355_">
                                    <g id="XMLID_356_">
                                      <g id="XMLID_357_">
                                        <g id="XMLID_358_">
                                          <g id="XMLID_359_">
                                            <g id="XMLID_360_">
                                              <g id="XMLID_361_">
                                                <path id="Tracé_110" data-name="Tracé 110" d="M293.156,195.723c.843.843,5.48-2.74,12.014-2.529,6.745,0,11.592,3.372,12.224,2.529.422-.422-.422-1.9-2.529-3.372a17.626,17.626,0,0,0-9.7-2.951,15.613,15.613,0,0,0-9.7,3.161C293.577,193.826,292.734,195.3,293.156,195.723Z" transform="translate(-293.05 -189.4)" fill="#263238"/>
                                              </g>
                                            </g>
                                          </g>
                                        </g>
                                      </g>
                                    </g>
                                  </g>
                                </g>
                              </g>
                            </g>
                            <g id="XMLID_362_" transform="translate(75.743 86.165)">
                              <g id="XMLID_363_">
                                <g id="XMLID_364_">
                                  <g id="XMLID_365_">
                                    <g id="XMLID_366_">
                                      <g id="XMLID_367_">
                                        <g id="XMLID_368_">
                                          <g id="XMLID_369_">
                                            <g id="XMLID_370_">
                                              <g id="XMLID_371_">
                                                <path id="Tracé_111" data-name="Tracé 111" d="M324.12,200.723c.843.843,5.48-2.74,12.014-2.529,6.744,0,11.592,3.372,12.224,2.529.422-.422-.422-1.9-2.529-3.372a17.626,17.626,0,0,0-9.7-2.951,15.613,15.613,0,0,0-9.7,3.161C324.542,198.826,323.91,200.3,324.12,200.723Z" transform="translate(-324.082 -194.4)" fill="#263238"/>
                                              </g>
                                            </g>
                                          </g>
                                        </g>
                                      </g>
                                    </g>
                                  </g>
                                </g>
                              </g>
                            </g>
                            <g id="XMLID_372_" transform="translate(34.579 77.311)">
                              <g id="XMLID_373_">
                                <g id="XMLID_374_">
                                  <g id="XMLID_375_">
                                    <g id="XMLID_376_">
                                      <g id="XMLID_377_">
                                        <g id="XMLID_378_">
                                          <g id="XMLID_379_">
                                            <g id="XMLID_380_">
                                              <path id="Tracé_112" data-name="Tracé 112" d="M321.515,245.422c0-.422-4-1.054-10.749-1.9-1.686-.211-3.372-.422-3.583-1.686-.422-1.265.422-3.161,1.054-5.058,1.686-4,3.372-8.431,5.058-12.857,6.955-18.337,12.014-33.512,11.381-33.722-.843-.211-6.955,14.332-14.121,32.879-1.686,4.637-3.372,8.852-4.848,13.067-.632,1.9-1.686,4.215-.843,6.744a4.616,4.616,0,0,0,2.74,2.529,7.681,7.681,0,0,0,2.951.422C317.3,245.843,321.515,245.843,321.515,245.422Z" transform="translate(-304.551 -190.199)" fill="#263238"/>
                                            </g>
                                          </g>
                                        </g>
                                      </g>
                                    </g>
                                  </g>
                                </g>
                              </g>
                            </g>
                            <g id="XMLID_381_" transform="translate(46.906 194.288)">
                              <g id="XMLID_382_">
                                <g id="XMLID_383_">
                                  <g id="XMLID_384_">
                                    <g id="XMLID_385_">
                                      <g id="XMLID_386_">
                                        <g id="XMLID_387_">
                                          <g id="XMLID_388_">
                                            <path id="Tracé_113" data-name="Tracé 113" d="M310.4,262.772s32.458,2.108,64.494-17.072c-.632.211-17.7,33.512-63.862,28.453Z" transform="translate(-310.4 -245.7)" fill="#eb996e"/>
                                          </g>
                                        </g>
                                      </g>
                                    </g>
                                  </g>
                                </g>
                              </g>
                            </g>
                            <g id="XMLID_389_" transform="translate(53.343 140.621)">
                              <path id="XMLID_390_" d="M313.551,231.329c-.843-4,4-5.48,7.588-7.588s5.48-5.058,8.852-2.529a13.4,13.4,0,0,1,4,5.691,7.742,7.742,0,0,1-2.318,9.484,13.222,13.222,0,0,1-7.166,3.794,10.182,10.182,0,0,1-7.8-1.9,8.194,8.194,0,0,1-2.951-7.377" transform="translate(-313.454 -220.237)" fill="#eb996e"/>
                            </g>
                            <g id="XMLID_391_" transform="translate(49.857 137.17)">
                              <g id="XMLID_392_">
                                <g id="XMLID_393_">
                                  <g id="XMLID_394_">
                                    <g id="XMLID_395_">
                                      <g id="XMLID_396_">
                                        <g id="XMLID_397_">
                                          <g id="XMLID_398_">
                                            <g id="XMLID_399_">
                                              <path id="Tracé_114" data-name="Tracé 114" d="M333.087,218.6c-1.054,0-1.054,7.166-7.377,12.224-6.112,5.058-13.911,4.215-13.911,5.269,0,.422,1.686,1.475,5.058,1.475a17.208,17.208,0,0,0,11.592-4,15.623,15.623,0,0,0,5.691-10.327C334.352,220.286,333.72,218.6,333.087,218.6Z" transform="translate(-311.8 -218.6)" fill="#263238"/>
                                            </g>
                                          </g>
                                        </g>
                                      </g>
                                    </g>
                                  </g>
                                </g>
                              </g>
                            </g>
                          </g>
                        </g>
                      </g>
                      <g id="XMLID_400_" transform="translate(74.868 72.755)">
                        <g id="XMLID_401_">
                          <g id="XMLID_402_">
                            <g id="XMLID_403_">
                              <g id="XMLID_404_">
                                <g id="XMLID_405_">
                                  <g id="XMLID_406_">
                                    <g id="XMLID_407_">
                                      <path id="Tracé_115" data-name="Tracé 115" d="M323.737,193.017c.632,1.9,7.377,1.054,15.175,1.9s14.121,3.161,15.175,1.475c.422-.843-.632-2.529-3.161-4.215a27.593,27.593,0,0,0-11.171-4,28.126,28.126,0,0,0-11.8,1.265C324.791,190.7,323.316,191.963,323.737,193.017Z" transform="translate(-323.667 -188.037)" fill="#263238"/>
                                    </g>
                                  </g>
                                </g>
                              </g>
                            </g>
                          </g>
                        </g>
                      </g>
                      <g id="XMLID_408_" transform="translate(11.261 51.81)">
                        <g id="XMLID_409_">
                          <g id="XMLID_410_">
                            <g id="XMLID_411_">
                              <g id="XMLID_412_">
                                <g id="XMLID_413_">
                                  <g id="XMLID_414_">
                                    <g id="XMLID_415_">
                                      <path id="Tracé_116" data-name="Tracé 116" d="M293.725,185.266c1.265,1.475,5.691,0,11.171-.211s10.117,1.054,11.171-.632c.422-.843-.211-2.318-2.318-3.794a15.953,15.953,0,0,0-9.063-2.529,17.054,17.054,0,0,0-9.063,2.951C293.725,182.948,293.092,184.423,293.725,185.266Z" transform="translate(-293.488 -178.1)" fill="#263238"/>
                                    </g>
                                  </g>
                                </g>
                              </g>
                            </g>
                          </g>
                        </g>
                      </g>
                    </g>
                  </g>
                </g>
              </g>
              <g id="XMLID_416_" transform="translate(62.481 38.912)">
                <g id="XMLID_417_">
                  <path id="Tracé_117" data-name="Tracé 117" d="M428.791,343.236c-13.278,2.74-14.543-4-24.238-13.278a43.649,43.649,0,0,1-13.278-36.673c1.475-11.8,7.8-23.816,3.794-34.987-5.48-14.754-26.135-19.39-31.615-34.144-3.161-8.641-.422-18.547-4-26.978-3.372-8.009-11.8-12.435-19.812-15.386s-16.861-5.058-23.606-10.327-10.96-15.175-6.745-22.763a452.573,452.573,0,0,1,105.383,25.5c7.8,2.951,16.229,6.534,20.866,13.489,4.848,7.377,4.637,16.861,4.215,25.924-2.108,43.207-4,86.624-6.112,129.831" transform="translate(-307.599 -148.7)" fill="#263238"/>
                </g>
              </g>
            </g>
            <g id="XMLID_418_" transform="translate(63.326 22.311)">
              <g id="XMLID_419_">
                <g id="XMLID_420_">
                  <path id="Tracé_118" data-name="Tracé 118" d="M459.119,335.732l.632-.632c.211-.422.843-1.054,1.265-1.9a28.212,28.212,0,0,0,2.318-22.763,27.413,27.413,0,0,0-11.17-15.175c-5.691-4-13.068-6.744-17.915-13.278a14.284,14.284,0,0,1-2.529-11.381c.632-4.215,2.529-8.22,4.215-12.435A36.281,36.281,0,0,0,435.3,229.3a32.076,32.076,0,0,0-9.7-12.224c-4.215-3.161-9.484-4.848-14.754-6.112s-10.327-1.9-15.175-3.372-9.484-3.583-12.857-6.955-4.848-8.009-5.48-12.646-1.054-9.484-2.318-13.911a47.1,47.1,0,0,0-13.067-22.763A39.071,39.071,0,0,0,341.512,141.2a31.023,31.023,0,0,0-18.547,2.74,29.817,29.817,0,0,0-10.749,9.274,21.132,21.132,0,0,0-3.794,8.22,18.2,18.2,0,0,0-.422,3.161c.211.211.422-4.426,4.848-10.749a32.492,32.492,0,0,1,10.538-8.852,29.266,29.266,0,0,1,17.915-2.318,36.53,36.53,0,0,1,19.39,9.906,47.573,47.573,0,0,1,12.435,22.13c1.265,4.426,1.475,9.063,2.108,13.911s2.318,10.117,6.112,13.7a31.452,31.452,0,0,0,13.7,7.588c5.058,1.475,10.327,2.318,15.386,3.372s10.117,2.74,13.91,5.691a27.957,27.957,0,0,1,9.063,11.381c4,8.852,4.215,18.969.632,27.189-1.686,4.215-3.583,8.431-4.215,12.857a16.61,16.61,0,0,0,2.951,12.646c5.269,6.955,12.857,9.7,18.547,13.489a27.684,27.684,0,0,1,10.96,14.121,28.661,28.661,0,0,1,1.054,13.7A26.916,26.916,0,0,1,459.119,335.732Z" transform="translate(-308 -140.823)" fill="#455a64"/>
                </g>
              </g>
            </g>
          </g>
          <g id="XMLID_421_" transform="translate(124.162 202.756)">
            <g id="XMLID_422_">
              <g id="XMLID_423_">
                <path id="XMLID_424_" d="M364.339,210.6a122.3,122.3,0,0,0-5.691,80.3c2.108,7.8,5.269,16.018,3.372,24.027-2.108,8.641-9.274,14.964-14.543,21.92a54.119,54.119,0,0,0,16.65,79.248c1.475-8.009,8.852-13.278,16.018-16.861,7.377-3.372,15.386-5.9,20.866-11.8s7.166-16.44.632-21.287c18.547-4.848,29.086-26.978,25.081-45.736s-19.18-33.512-36.462-41.732" transform="translate(-336.865 -210.6)" fill="#263238"/>
              </g>
              <g id="XMLID_425_" transform="translate(0.093 142.899)">
                <path id="XMLID_426_" d="M384.1,322.661c-3.372,1.9-6.534,3.372-6.955,7.166-.422,4.426,3.794,12.224,5.269,16.44A22.706,22.706,0,0,1,352.7,375.141c5.9.422,10.96-5.269,11.592-11.171s-2.318-11.592-5.9-16.44-7.8-9.063-10.749-14.121c-6.112-10.538-15.175-38.992-8.22-55.01" transform="translate(-336.909 -278.4)" fill="#263238"/>
              </g>
            </g>
            <g id="XMLID_427_" transform="translate(54.379 32.669)">
              <g id="XMLID_428_">
                <path id="XMLID_429_" d="M372.433,350.03l1.054-1.054c.843-.632,1.9-1.475,3.372-2.74a69.329,69.329,0,0,0,10.749-11.171,56.433,56.433,0,0,0,10.327-20.444c2.108-8.431,2.318-18.337-1.265-27.61a39.935,39.935,0,0,0-7.588-12.224c-3.161-3.583-6.534-6.744-9.7-9.7a86.761,86.761,0,0,1-8.641-9.063,36.736,36.736,0,0,1-5.691-9.274,24.806,24.806,0,0,1-1.9-15.386,16.235,16.235,0,0,1,1.475-4,5.218,5.218,0,0,1,.843-1.265c.211,0-1.054,1.686-1.9,5.269s-.632,9.063,2.108,15.175a35.767,35.767,0,0,0,5.691,9.063,112.753,112.753,0,0,0,8.641,8.852c3.161,2.951,6.534,6.112,9.7,9.7a42.592,42.592,0,0,1,7.8,12.646,45.1,45.1,0,0,1,1.265,28.243A57.5,57.5,0,0,1,388.241,335.7a58.48,58.48,0,0,1-11.171,10.96c-1.475,1.054-2.529,1.9-3.372,2.529Z" transform="translate(-362.665 -226.1)" fill="#455a64"/>
              </g>
            </g>
          </g>
        </g>
      </g>
    </g>
    <g id="Plant" transform="translate(78.718 729.097)">
      <g id="XMLID_430_" transform="translate(0)">
        <g id="XMLID_431_" transform="translate(66.011)">
          <g id="XMLID_432_">
            <path id="Tracé_119" data-name="Tracé 119" d="M83.085,443.085c5.269,6.744,14.754,3.794,18.758-.843,4.215-4.637,5.691-10.749,6.955-16.861,2.951-13.7,6.112-28.032,2.318-41.521a24.21,24.21,0,0,0-5.9-10.96c-3.161-2.951-7.588-4.426-11.592-3.161-4.637,1.475-7.377,6.534-9.274,10.96a99.064,99.064,0,0,0-7.166,42.785c.632,7.166,1.9,14.121,5.9,19.6" transform="translate(-77.025 -369.284)" fill="#e8505b"/>
          </g>
        </g>
        <g id="XMLID_433_" transform="translate(66.011)" opacity="0.2">
          <g id="XMLID_434_">
            <path id="Tracé_120" data-name="Tracé 120" d="M83.085,443.085c5.269,6.744,14.754,3.794,18.758-.843,4.215-4.637,5.691-10.749,6.955-16.861,2.951-13.7,6.112-28.032,2.318-41.521a24.21,24.21,0,0,0-5.9-10.96c-3.161-2.951-7.588-4.426-11.592-3.161-4.637,1.475-7.377,6.534-9.274,10.96a99.064,99.064,0,0,0-7.166,42.785c.632,7.166,1.9,14.121,5.9,19.6" transform="translate(-77.025 -369.284)" fill="#ffc700"/>
          </g>
        </g>
        <g id="XMLID_435_" transform="translate(84.238 102.833)">
          <g id="XMLID_436_">
            <path id="Tracé_121" data-name="Tracé 121" d="M94.161,423.187c7.8-4.637,17.072-5.691,26.135-4.848,4.848.422,9.906,1.686,13.278,5.058s4.426,9.7,1.054,12.857c-2.108,1.9-5.269,2.529-8.009,2.529-6.955.422-14.754-.422-20.023,4.215-2.951,2.529-4.848,6.745-8.641,8.009-3.583,1.475-8.009-.632-10.117-3.794s-2.529-7.377-1.9-11.171A17.378,17.378,0,0,1,94.161,423.187Z" transform="translate(-85.672 -418.074)" fill="#ffc700"/>
          </g>
        </g>
        <g id="XMLID_437_" transform="translate(0 27.215)">
          <g id="XMLID_438_">
            <path id="Tracé_122" data-name="Tracé 122" d="M105.131,439.532c4.848-6.534,5.269-15.807,2.529-23.606-2.951-7.8-8.641-14.121-15.175-19.18a74.263,74.263,0,0,0-25.713-13.068c-3.583-1.054-7.588-1.9-11.171-1.265a11.906,11.906,0,0,0-9.063,6.323c-2.318,5.058.632,10.96,3.583,15.807a180.375,180.375,0,0,0,17.915,23.816c5.269,5.9,11.171,11.8,18.969,14.121,7.588,2.318,15.386,1.475,18.969-3.794" transform="translate(-45.705 -382.197)" fill="#ffc800"/>
          </g>
        </g>
        <g id="XMLID_439_" transform="translate(77.762 112.793)">
          <g id="XMLID_440_">
            <g id="XMLID_441_">
              <path id="Tracé_123" data-name="Tracé 123" d="M83.232,489.191a18,18,0,0,0,.211-3.161c0-2.318.211-5.269.211-8.641.211-3.583.422-8.009,1.054-12.857a94.226,94.226,0,0,1,3.583-15.386,54.792,54.792,0,0,1,6.744-14.121,27.224,27.224,0,0,1,9.274-8.641,19.8,19.8,0,0,1,8.009-2.951l3.161-.632s-1.054,0-3.161.211a25.569,25.569,0,0,0-8.431,2.74,26.936,26.936,0,0,0-9.7,8.852,56.979,56.979,0,0,0-7.166,14.332,96.414,96.414,0,0,0-3.583,15.6A101.205,101.205,0,0,0,82.6,477.6c0,3.794,0,6.745.211,8.641C83.022,487.926,83.232,489.191,83.232,489.191Z" transform="translate(-82.6 -422.8)" fill="#263238"/>
            </g>
          </g>
        </g>
        <g id="XMLID_442_" transform="translate(76.076 28.276)">
          <g id="XMLID_443_">
            <g id="XMLID_444_">
              <path id="Tracé_124" data-name="Tracé 124" d="M84.329,526.863v-1.475c0-1.054-.211-2.529-.211-4.215-.211-3.583-.632-8.852-.843-15.386-.422-13.067-.422-31.193.422-51.216s2.74-37.938,4.637-51.005c.422-3.161.843-6.112,1.265-8.641s.843-4.848,1.054-6.534.632-3.161.632-4.215A8.818,8.818,0,0,0,91.5,382.7a6.588,6.588,0,0,0-.422,1.475c-.211,1.054-.632,2.529-1.054,4.215s-.843,4-1.265,6.534-1.054,5.48-1.475,8.641a447.361,447.361,0,0,0-4.848,51.005c-.843,20.023-.843,38.148,0,51.216.422,6.534.843,11.8,1.265,15.386a40.237,40.237,0,0,1,.422,4.215A8.819,8.819,0,0,1,84.329,526.863Z" transform="translate(-81.8 -382.7)" fill="#263238"/>
            </g>
          </g>
        </g>
        <g id="XMLID_445_" transform="translate(23.59 42.997)">
          <g id="XMLID_446_">
            <g id="XMLID_447_">
              <path id="Tracé_125" data-name="Tracé 125" d="M109.805,484.35s0-1.475-.211-4.426c-.422-2.74-1.054-6.955-2.108-11.8a132.613,132.613,0,0,0-5.058-17.072,133.566,133.566,0,0,0-8.641-20.023c-6.955-13.911-15.807-25.081-23.395-31.826-1.686-1.9-3.794-3.161-5.269-4.426a16.08,16.08,0,0,0-2.318-1.686c-.632-.422-1.475-.843-2.108-1.265-2.529-1.475-3.794-2.318-3.794-2.108-.211.211,5.48,3.161,12.857,10.117s16.018,17.915,22.973,31.826a171.762,171.762,0,0,1,8.641,19.812c2.318,6.323,4,12.014,5.269,16.861s1.9,8.852,2.529,11.592A29.432,29.432,0,0,0,109.805,484.35Z" transform="translate(-56.897 -389.685)" fill="#263238"/>
            </g>
          </g>
        </g>
      </g>
    </g>
    <g id="Confetti" transform="translate(40.459 86.929)">
      <g id="XMLID_448_" transform="translate(414.676 285.135)">
        <g id="XMLID_449_">
          <path id="Tracé_126" data-name="Tracé 126" d="M246.009,212.351c-3.794-13.7-21.709-12.435-21.709-12.435l.422,9.484c10.327-1.686,16.861,10.327,16.861,10.327Z" transform="translate(-224.3 -199.885)" fill="#ffc600"/>
        </g>
      </g>
      <g id="XMLID_450_" transform="translate(249.436 137.208)">
        <g id="XMLID_451_">
          <path id="Tracé_127" data-name="Tracé 127" d="M156.649,129.7c-9.7,1.054-10.749,13.067-10.749,13.067l6.534.843c0-7.166,8.852-10.117,8.852-10.117Z" transform="translate(-145.9 -129.7)" fill="#ffc600"/>
        </g>
      </g>
      <g id="XMLID_452_" transform="translate(350.182)">
        <g id="XMLID_453_">
          <path id="Tracé_128" data-name="Tracé 128" d="M193.7,73.452c5.9,14.964,25.924,11.592,25.924,11.592L217.938,74.3c-11.381,3.161-20.023-9.7-20.023-9.7Z" transform="translate(-193.7 -64.6)" fill="#ffc600"/>
        </g>
      </g>
      <g id="XMLID_454_" transform="translate(114.757 262.403)">
        <g id="XMLID_455_" transform="translate(0 0)">
          <path id="Tracé_129" data-name="Tracé 129" d="M92.749,189.1C83.054,190.154,82,202.167,82,202.167l6.534.843c0-7.166,8.852-10.117,8.852-10.117Z" transform="translate(-82 -189.1)" fill="#ffc600"/>
        </g>
      </g>
      <g id="XMLID_456_" transform="translate(152.906 42.996)">
        <g id="XMLID_457_">
          <path id="Tracé_130" data-name="Tracé 130" d="M112.535,98.7C114.01,89,102.418,85,102.418,85L100.1,91.112c6.955,1.686,7.588,10.96,7.588,10.96Z" transform="translate(-100.1 -85)" fill="#ffc600"/>
        </g>
      </g>
      <g id="XMLID_458_" transform="translate(0 197.908)">
        <g id="XMLID_459_">
          <path id="Tracé_131" data-name="Tracé 131" d="M27.653,164.823C25.967,180,45.99,183.581,45.99,183.581l3.583-9.906c-12.014-1.054-13.7-15.175-13.7-15.175Z" transform="translate(-27.552 -158.5)" fill="#ffc600"/>
        </g>
      </g>
      <g id="XMLID_460_" transform="translate(470.95 118.45)">
        <g id="XMLID_461_">
          <path id="Tracé_132" data-name="Tracé 132" d="M254.794,133.867c9.7.632,12.857-11.171,12.857-11.171l-6.323-1.9c-1.054,6.955-10.327,8.431-10.327,8.431Z" transform="translate(-251 -120.8)" fill="#ffc600"/>
        </g>
      </g>
    </g>
  </g>
</svg>
