<svg xmlns="http://www.w3.org/2000/svg" width="20.949" height="18.331" viewBox="0 0 20.949 18.331">
  <path id="bars-icon" d="M.748,3.367H20.2a.748.748,0,0,0,.748-.748V.748A.748.748,0,0,0,20.2,0H.748A.748.748,0,0,0,0,.748v1.87A.748.748,0,0,0,.748,3.367Zm0,7.482H20.2a.748.748,0,0,0,.748-.748V8.23a.748.748,0,0,0-.748-.748H.748A.748.748,0,0,0,0,8.23V10.1A.748.748,0,0,0,.748,10.849Zm0,7.482H20.2a.748.748,0,0,0,.748-.748v-1.87a.748.748,0,0,0-.748-.748H.748A.748.748,0,0,0,0,15.712v1.87A.748.748,0,0,0,.748,18.331Z" fill="#161616" opacity="0.44"/>
</svg>
