<svg xmlns="http://www.w3.org/2000/svg" width="49.333" height="37" viewBox="0 0 49.333 37">
  <path id="chart-icon" d="M47.792,35.333H6.167V6.042A1.541,1.541,0,0,0,4.625,4.5H1.542A1.541,1.541,0,0,0,0,6.042V38.417A3.084,3.084,0,0,0,3.083,41.5H47.792a1.541,1.541,0,0,0,1.542-1.542V36.875A1.541,1.541,0,0,0,47.792,35.333ZM44.708,7.583H33.333A2.312,2.312,0,0,0,31.7,11.531l3.122,3.122-7.07,7.07-7.07-7.07a3.082,3.082,0,0,0-4.36,0L9.7,21.272a1.542,1.542,0,0,0,0,2.18l2.18,2.18a1.542,1.542,0,0,0,2.18,0L18.5,21.193l7.07,7.07a3.082,3.082,0,0,0,4.36,0l9.25-9.25L42.3,22.135A2.312,2.312,0,0,0,46.249,20.5V9.125A1.54,1.54,0,0,0,44.708,7.583Z" transform="translate(0 -4.5)" fill="#fff"/>
</svg>
