<svg id="comments-icon" xmlns="http://www.w3.org/2000/svg" width="18.198" height="18.201" viewBox="0 0 18.198 18.201">
  <path id="Tracé_2" data-name="Tracé 2" d="M23.049,11.981h-9.7a1.669,1.669,0,0,0-1.667,1.667V20.4a1.666,1.666,0,0,0,1.667,1.663H18.9a.478.478,0,0,1,.333.14l2.757,2.542c.153.149.407.088.407-.127V22.4c0-.263.166-.346.429-.346h.044A1.821,1.821,0,0,0,24.712,20.4V13.648A1.66,1.66,0,0,0,23.049,11.981Z" transform="translate(-6.514 -6.626)" fill="#ffffff"/>
  <path id="Tracé_3" data-name="Tracé 3" d="M8.906,7.659h7.762V4.8a1.427,1.427,0,0,0-1.426-1.426H4.8A1.427,1.427,0,0,0,3.375,4.8V12.03A1.427,1.427,0,0,0,4.8,13.456H7.475V9.085A1.433,1.433,0,0,1,8.906,7.659Z" transform="translate(-3.375 -3.375)" fill="#ffffff"/>
</svg>
