<svg xmlns="http://www.w3.org/2000/svg" width="25.603" height="19.511" viewBox="0 0 25.603 19.511">
  <path id="Icon_awesome-sign-out-alt" data-name="Icon awesome-sign-out-alt" d="M.354,15.117l8.535,8.535a1.221,1.221,0,0,0,2.083-.864V17.911h6.909A1.216,1.216,0,0,0,19.1,16.692V11.815A1.216,1.216,0,0,0,17.881,10.6H10.972V5.719a1.222,1.222,0,0,0-2.083-.864L.354,13.39A1.23,1.23,0,0,0,.354,15.117ZM15.849,23.4V21.366a.611.611,0,0,1,.61-.61h4.267a1.624,1.624,0,0,0,1.626-1.626V9.377a1.624,1.624,0,0,0-1.626-1.626H16.459a.611.611,0,0,1-.61-.61V5.109a.611.611,0,0,1,.61-.61h4.267A4.878,4.878,0,0,1,25.6,9.377V19.13a4.878,4.878,0,0,1-4.877,4.877H16.459A.611.611,0,0,1,15.849,23.4Z" transform="translate(0 -4.499)" fill="#919191"/>
</svg>
