<svg xmlns="http://www.w3.org/2000/svg" width="20.235" height="15.738" viewBox="0 0 20.235 15.738">
  <path id="medias-icon" d="M16.863,15.74V16.3a1.686,1.686,0,0,1-1.686,1.686H1.686A1.686,1.686,0,0,1,0,16.3V7.309A1.686,1.686,0,0,1,1.686,5.623h.562V12.93a2.814,2.814,0,0,0,2.81,2.81Zm3.373-2.81V3.936A1.686,1.686,0,0,0,18.549,2.25H5.059A1.686,1.686,0,0,0,3.373,3.936V12.93a1.686,1.686,0,0,0,1.686,1.686h13.49A1.686,1.686,0,0,0,20.235,12.93ZM8.993,5.623A1.686,1.686,0,1,1,7.307,3.936,1.686,1.686,0,0,1,8.993,5.623ZM5.621,10.681l1.95-1.95a.422.422,0,0,1,.6,0l1.388,1.388,4.761-4.761a.422.422,0,0,1,.6,0l3.074,3.074v3.935H5.621Z" transform="translate(0 -2.25)" fill="#ffffff"/>
</svg>
