<svg id="mssage-icon" xmlns="http://www.w3.org/2000/svg" width="18.202" height="12.602" viewBox="0 0 18.202 12.602">
  <path id="Tracé_4" data-name="Tracé 4" d="M21.429,10.341l-4.708,4.8a.085.085,0,0,0,0,.123l3.295,3.509a.568.568,0,0,1,0,.805.57.57,0,0,1-.805,0l-3.282-3.5a.09.09,0,0,0-.127,0l-.8.814a3.523,3.523,0,0,1-2.512,1.059,3.594,3.594,0,0,1-2.564-1.09l-.77-.783a.09.09,0,0,0-.127,0l-3.282,3.5a.57.57,0,0,1-.805,0,.568.568,0,0,1,0-.805l3.295-3.509a.093.093,0,0,0,0-.123l-4.713-4.8a.086.086,0,0,0-.149.061V20a1.4,1.4,0,0,0,1.4,1.4h15.4a1.4,1.4,0,0,0,1.4-1.4V10.4A.088.088,0,0,0,21.429,10.341Z" transform="translate(-3.375 -8.796)" fill="#ffffff"/>
  <path id="Tracé_5" data-name="Tracé 5" d="M12.8,15.887a2.379,2.379,0,0,0,1.711-.718l6.865-6.988a1.375,1.375,0,0,0-.866-.306H5.092a1.366,1.366,0,0,0-.866.306l6.865,6.988A2.379,2.379,0,0,0,12.8,15.887Z" transform="translate(-3.696 -7.875)" fill="#ffffff"/>
</svg>
