<svg id="orders-icon" xmlns="http://www.w3.org/2000/svg" width="18.196" height="16.807" viewBox="0 0 18.196 16.807">
  <path id="Tracé_6" data-name="Tracé 6" d="M11.663,29.175a1.05,1.05,0,1,1-1.05-1.05,1.05,1.05,0,0,1,1.05,1.05Z" transform="translate(-5.716 -13.419)" fill="#ffffff"/>
  <path id="Tracé_7" data-name="Tracé 7" d="M27.448,29.175a1.05,1.05,0,1,1-1.05-1.05,1.05,1.05,0,0,1,1.05,1.05Z" transform="translate(-11.678 -13.419)" fill="#ffffff"/>
  <path id="Tracé_8" data-name="Tracé 8" d="M21.571,7.481a.257.257,0,0,0-.228-.184L7.093,5.919a.439.439,0,0,1-.328-.206A4.456,4.456,0,0,0,6.231,4.9c-.337-.411-.971-.4-2.135-.407a.637.637,0,0,0-.713.617.625.625,0,0,0,.683.617A5.814,5.814,0,0,1,5.2,5.81c.206.061.372.4.433.691a.016.016,0,0,0,0,.013c.009.053.088.446.088.451l1.75,9.259a3.4,3.4,0,0,0,.634,1.562,1.746,1.746,0,0,0,1.44.709H19.9a.622.622,0,0,0,.63-.586.61.61,0,0,0-.613-.639H9.543a.508.508,0,0,1-.363-.123,1.964,1.964,0,0,1-.5-1.138l-.188-1.037a.024.024,0,0,1,.018-.026L20.657,12.89a.256.256,0,0,0,.214-.228l.7-5.067A.25.25,0,0,0,21.571,7.481Z" transform="translate(-3.382 -4.493)" fill="#ffffff"/>
</svg>
