<svg xmlns="http://www.w3.org/2000/svg" width="17.422" height="18.92" viewBox="0 0 17.422 18.92">
  <g id="product-icon" transform="translate(1.139 1.028)">
    <path id="Tracé_11" data-name="Tracé 11" d="M19.644,14.78V8.049A1.683,1.683,0,0,0,18.8,6.594L12.913,3.229a1.683,1.683,0,0,0-1.683,0L5.341,6.594A1.683,1.683,0,0,0,4.5,8.049V14.78a1.683,1.683,0,0,0,.841,1.455L11.231,19.6a1.683,1.683,0,0,0,1.683,0L18.8,16.235A1.683,1.683,0,0,0,19.644,14.78Z" transform="translate(-4.5 -3.003)" fill="none" stroke="#ffffff" stroke-linecap="round" stroke-linejoin="round" stroke-width="2"/>
    <path id="Tracé_12" data-name="Tracé 12" d="M4.905,10.44l7.345,4.249,7.345-4.249" transform="translate(-4.678 -6.269)" fill="none" stroke="#ffffff" stroke-linecap="round" stroke-linejoin="round" stroke-width="2"/>
    <path id="Tracé_13" data-name="Tracé 13" d="M18,26.481V18" transform="translate(-10.428 -9.589)" fill="none" stroke="#ffffff" stroke-linecap="round" stroke-linejoin="round" stroke-width="2"/>
  </g>
</svg>
