<svg xmlns="http://www.w3.org/2000/svg" width="16.802" height="16.807" viewBox="0 0 16.802 16.807">
  <path id="settings-icon" d="M19.915,12.9A2.162,2.162,0,0,1,21.3,10.884a8.57,8.57,0,0,0-1.037-2.5,2.191,2.191,0,0,1-.879.188,2.157,2.157,0,0,1-1.973-3.037A8.544,8.544,0,0,0,14.918,4.5a2.16,2.16,0,0,1-4.034,0,8.57,8.57,0,0,0-2.5,1.037A2.157,2.157,0,0,1,6.412,8.574a2.12,2.12,0,0,1-.879-.188,8.76,8.76,0,0,0-1.033,2.5,2.161,2.161,0,0,1,0,4.034,8.57,8.57,0,0,0,1.037,2.5A2.158,2.158,0,0,1,8.39,20.27a8.62,8.62,0,0,0,2.5,1.037,2.156,2.156,0,0,1,4.026,0,8.57,8.57,0,0,0,2.5-1.037,2.16,2.16,0,0,1,2.849-2.849,8.62,8.62,0,0,0,1.037-2.5A2.172,2.172,0,0,1,19.915,12.9Zm-6.975,3.5a3.5,3.5,0,1,1,3.5-3.5A3.5,3.5,0,0,1,12.941,16.4Z" transform="translate(-4.5 -4.5)" fill="#ffffff"/>
</svg>
